<svg id="Layer_1" data-name="Layer 1" xmlns="http://www.w3.org/2000/svg" viewBox="0 0 997 489.26"><defs><style>.cls-1{fill:#231f20;}.cls-2{fill:#b71c1c;stroke:#231f20;stroke-miterlimit:10;stroke-width:2px;}</style></defs><title>ICKnifeLogo</title><path class="cls-1" d="M61.91,175.1c25.48-17.15,48.27-20.34,73-20.34,21.56,0,44.34,4.41,51.2,6.37,1.47-3.18,4.41-18.86,5.15-21.8l5.63-1.22a608.89,608.89,0,0,0-5.39,75.7l-5.63-1.72a181.5,181.5,0,0,0-1.47-20.33c-4.66-10.78-27.44-28.42-59-28.42-44.59,0-72.77,32.34-72.77,70.56,0,47.77,39.45,88.2,91.14,88.2,18.62,0,40.67-2.94,58.06-13.23l-3.43,10.53c-5.63,4.66-30.38,14.7-68.84,14.7-9.07,0-35.77-1-55.61-10.78-31.85-15.68-50.72-43.61-50.72-75C23.2,214.54,40.35,189.55,61.91,175.1Z" transform="translate(-16.36 -5.4)"/><path class="cls-1" d="M247.81,280.78c0,34.23,14.52,45.85,32,45.85,10.66,0,17.76-2.58,23.25-7.75,8.72-8.23,10.81-22.44,10.81-41.81V262.22c0-5.17-.16-34.71-.8-40-3.72-.65-13.4-1.94-17.6-2.26l-1.13-3.39c4,.32,16.14.64,26.15.64,8.4,0,16.95-.32,19.7-.64l-1,3.39c-2.74.65-7.1,1.29-11.3,2.26-.49,2.42-.81,22.6-.81,27v7.75c0,6.29.32,14,.32,19.86,0,18.24-3.39,33.74-15.82,44.71-7.42,6.62-17.75,11.3-33.74,11.3-33.41,0-48.75-20.66-48.75-48.91V258.67c0-14.54-.32-32-.81-36.49-3.39-.81-8.39-1.61-12.75-2.26l-.49-3.39c4.52.32,14.86.64,27.29.64,7.42,0,19.85-.32,23.89-.64l-.81,3.39c-4.36.48-11.62,1.29-16.79,2.26-.48,2.74-.8,23.25-.8,37.13Z" transform="translate(-16.36 -5.4)"/><path class="cls-1" d="M372.59,261.57c0-9.2-.16-34.22-.81-39.39-3.55-.65-13.07-1.94-17.27-2.26l-.48-3.39c4,.32,18.08.64,27.93.64,10.81,0,26.47-.32,29.7-.64l-.81,3.39c-3.87.32-12.59,1.61-19.05,2.26-.64,5.17-.8,28.41-.8,41.33v5.81c0,21.15.16,52.14.8,55.7,19.21,0,32.45-4.2,38.59-8.24,2.42-5.49,4.52-13.88,5.81-18.4l3.87-.65a452.71,452.71,0,0,0-8.55,53.12L427.8,350c0-2.26.81-14.53.81-18.89-3.55-.32-38.42-1-47.14-1-8.07,0-22.92.32-27.44.65l.64-3.39c2.42-.16,13.72-1.13,17.11-2.26.65-7.11.81-38.26.81-54.25Z" transform="translate(-16.36 -5.4)"/><path class="cls-1" d="M467.67,263.18c0-5.32-.16-35.51-.8-41-3.23-.65-13.89-1.94-16.95-2.26l-.81-3.39c3.07.32,17.92.64,30.67.64,8.23,0,22.12-.32,24.86-.64l-.8,3.39c-3.23.32-11.14,1.61-17,2.26-.64,3.23-.8,21.95-.8,41.81v10c0,21,.16,47.95.8,51.18,4,1,13.73,1.93,17,2.26l.8,3.39c-3.55-.33-20.34-.65-30.35-.65-5.49,0-20.34.32-25.18.65l.64-3.39c2.75-.16,13.73-1.62,17.12-2.26.64-6.78.8-36.65.8-52.47Z" transform="translate(-16.36 -5.4)"/><path class="cls-1" d="M518.85,217.17c9-.32,24.21-.48,36.8-1.13,3.56,5.49,36,46.18,38.75,49.08,4.2,4.52,29.86,35.68,35,40,0-17.92-.16-74.59-3.39-83-3.23-.65-11.79-1.94-16.31-2.26l-.8-3.39c3.07.32,20.5.64,24.05.64s16.95-.32,20.34-.64l-.64,3.39c-2.1.32-7.91,1.61-12.27,2.26-1.94,6.3-2.75,29.06-3.07,34.22-.48,7.59-1.78,75.4-2.74,81.85-4.85-4.52-49.56-56.66-53.28-60.86-2.26-2.42-32.93-39.87-38.26-46-.48,3.23,1.45,88,3.55,93.8,2.42.8,14.53,1.93,17.6,2.26l.48,3.39c-2.9-.33-19.69-.65-23.89-.65-4.68,0-17.27.32-21.95.65l.48-3.39c4.52-.65,9.69-1.13,13.4-2.26,2.74-6.78,4.52-97.35,4.52-102.68a142.54,142.54,0,0,0-17.76-1.93Z" transform="translate(-16.36 -5.4)"/><path class="cls-1" d="M727.9,327.44a125.27,125.27,0,0,0,16.31-2.26c-2.91-8.4-14.37-42.62-17-47.3-5.65,0-31.31,1.13-37.29,2.09-1,2.26-9.68,32.78-11.3,45.21a93.23,93.23,0,0,0,13.89,2.26l.64,3.39c-5-.33-19.69-.65-24.38-.65-4.19,0-15,.32-18.72.65l.48-3.39a125.78,125.78,0,0,0,13.89-2.26c5.81-10.17,37.93-97,40.19-103.16a104,104,0,0,0-12.75-2.1l-.16-3.39c4.84.32,18.24.64,21,.64,6.78,0,22.92-.32,27.6-.64l-.48,3.39a91.37,91.37,0,0,0-12.27,2.1c1.94,7.1,10.81,32.45,16.95,49.4,4.52,12.43,14.53,39.55,22,53.76,4.69,1,9.37,1.61,14.21,2.26l.49,3.39c-1.94-.33-18.25-.65-26.8-.65-4.68,0-22.93.32-27.29.65ZM709.66,224.76h-.32c-5,14.37-15.5,42.3-17.12,47.63l33.9.64C722.57,262.38,712.4,233.64,709.66,224.76Z" transform="translate(-16.36 -5.4)"/><path class="cls-1" d="M800.06,262.05c0-5.81-.16-36.8-.81-39.87-2.74-.65-13.72-1.61-17.27-1.94l-.49-3.39,34.87-.16c15.34,0,34.55.16,45.53,4.52,8.56,3.39,13.88,9.53,13.88,18.41,0,10.17-10.33,23.56-22.76,30.51,1.78,4,27.77,46.33,44.56,64.09l-7.11,1.13c-11.3-5.17-54.24-54.73-56.82-58.12-6.14.48-12.76,1-15.5,1v4.2c0,10.49.32,35.35.81,42.78,2.74.8,13.4,1.93,16.95,2.26l.64,3.39c-4-.33-20.34-.65-27.76-.65-6.62,0-23.57.32-27.29.65l.65-3.39c2.26-.16,12.59-1.13,17.11-2.26.65-4.68.81-36.33.81-53.28Zm18.08,11.14a56,56,0,0,0,19.69-3.06c6.95-2.59,18.41-10,18.41-26,0-10.33-9.36-22.92-37.29-22.92-.49,6.62-.81,35.52-.81,47Z" transform="translate(-16.36 -5.4)"/><path class="cls-1" d="M937.28,289.5a93.08,93.08,0,0,0-.49-10.66c-1.29-4.19-32-49.72-39.39-56.66-2.1-1-8.07-1.61-11.3-2.26l-.65-3.39c2.75.32,13.4.64,28.09.64,9.21,0,20-.32,22.28-.64l-.8,3.39c-2.91.65-10.18,1.45-13.89,2.26,9.53,16.79,26,40.36,31,48.92,2.58-4.69,27.44-42.3,27.93-48.92-3.39-.81-10.5-1.94-12.6-2.26l-.48-3.39c2.42.32,11.46.64,20.34.64,7.43,0,15.82-.32,19.54-.64l-.49,3.39c-2.42.48-7.59,1.29-11,2.26-3.55,1.13-36.8,48.27-39.06,55.37a79.17,79.17,0,0,0-.65,11.46v6.14c0,4.36.16,26,.81,30,1.93.48,12.59,1.77,15.66,2.26l.32,3.39c-3.39-.33-17.92-.65-28.9-.65-5.81,0-17.59.32-22.11.65l.8-3.39a129.74,129.74,0,0,0,14.21-2.26c.64-2.42.81-20.18.81-30.51Z" transform="translate(-16.36 -5.4)"/><path class="cls-2" d="M261.82,83.25c0-8.25-.27-55-1.37-63.5-5.5-1-23.65-3-28.88-3.5L230.2,11c5.22.5,30.52,1,52.25,1,14,0,37.67-.5,42.35-1l-1.38,5.25c-5.5.5-19,2.5-28.87,3.5-1.1,5-1.38,34-1.38,64.75V100c0,32.5.28,74.25,1.38,79.25,6.87,1.5,23.37,3,28.87,3.5L324.8,188c-6.05-.5-34.65-1-51.7-1-9.35,0-34.65.5-42.9,1l1.1-5.25c4.67-.25,23.37-2.5,29.15-3.5,1.1-10.5,1.37-56.75,1.37-81.25Z" transform="translate(-16.36 -5.4)"/><path class="cls-2" d="M387,41.41c23.91-16.1,45.3-19.09,68.53-19.09,20.24,0,41.63,4.14,48.07,6,1.38-3,4.14-17.71,4.83-20.47l5.29-1.15a570.07,570.07,0,0,0-5.06,71.07l-5.29-1.61A169.37,169.37,0,0,0,502,57.05c-4.37-10.12-25.76-26.68-55.43-26.68-41.85,0-68.3,30.36-68.3,66.24,0,44.85,37,82.8,85.55,82.8,17.48,0,38.18-2.76,54.51-12.42l-3.22,9.89c-5.29,4.37-28.52,13.8-64.63,13.8-8.51,0-33.58-.92-52.21-10.12-29.89-14.72-47.6-40.94-47.6-70.38C350.65,78.44,366.75,55,387,41.41Z" transform="translate(-16.36 -5.4)"/><path class="cls-2" d="M553,164.92c-16.79-17.25-22.08-34-22.08-55.66,0-45.54,37.49-86.94,101-86.94,24.38,0,43.7,3.91,63.71,18.63,18.17,13.34,27.83,35.65,27.83,57,0,56.35-42.78,92.69-99.36,92.69C600.88,190.68,574.43,186.77,553,164.92Zm142.37-50.14c0-48.76-33.81-83.72-72-83.72-31.51,0-66,21.16-66,68.54,0,41.17,33.12,81.65,78,81.65C668.27,181.25,695.41,151.58,695.41,114.78Z" transform="translate(-16.36 -5.4)"/><path class="cls-2" d="M743,26c12.88-.46,34.5-.69,52.44-1.61,5.06,7.82,51.29,65.78,55.2,69.92,6,6.44,42.55,50.83,49.91,57,0-25.53-.23-106.26-4.83-118.22-4.6-.92-16.79-2.76-23.23-3.22l-1.15-4.83c4.37.46,29.21.92,34.27.92s24.15-.46,29-.92l-.92,4.83c-3,.46-11.27,2.3-17.48,3.22-2.76,9-3.91,41.4-4.37,48.76-.69,10.81-2.53,107.41-3.91,116.61-6.9-6.44-70.61-80.73-75.9-86.71-3.22-3.45-46.92-56.81-54.51-65.55-.69,4.6,2.07,125.35,5.06,133.63,3.45,1.15,20.7,2.76,25.07,3.22l.69,4.83c-4.14-.46-28.06-.92-34-.92-6.67,0-24.61.46-31.28.92l.69-4.83c6.44-.92,13.8-1.61,19.09-3.22,3.91-9.66,6.44-138.69,6.44-146.28-5.29-1.15-16.56-2.3-25.3-2.76Z" transform="translate(-16.36 -5.4)"/><path d="M61.5,438.75c-.94-1.84-25.2-49.51-31.57-62.14-2.44-4.84-2.68-8.37-2-10.92l-11.55.39,19.61,73s3.27,10.89,18.52,7.62l11.63-2.46A15.8,15.8,0,0,1,61.5,438.75Z" transform="translate(-16.36 -5.4)"/><path d="M371.07,426.54c.3-.46,25.79-39.77,25.79-58.85v-.25c.31-3.12-.22-7.13-1.4-7.83a.8.8,0,0,0-.47-.11v-.13c-115,.4-239.23,2.13-361.53,6.14-1.45,1.78-1.15,4.74.92,8.85,6.46,12.8,31.34,61.69,31.59,62.18l.08.16c.07.15,1.92,4.19,7.72,5.9v.07c4.33-.9,6.88-1.4,6.88-1.4s85-18.53,178.69-18.53c63.88,0,95.35,4.05,108.91,6.63A6.32,6.32,0,0,0,371.07,426.54ZM84.46,409.67A11.44,11.44,0,1,1,95.9,398.23,11.44,11.44,0,0,1,84.46,409.67ZM326.35,401a11.44,11.44,0,1,1,11.45-11.44A11.44,11.44,0,0,1,326.35,401Z" transform="translate(-16.36 -5.4)"/><path d="M991.57,381.34a323.14,323.14,0,0,0-82.82-15.26c-31.24-1.49-244.89-7.55-507.7-6.73a21.74,21.74,0,0,1,.81,8.47c-.1,20.59-25.48,59.73-26.56,61.39a16.34,16.34,0,0,1-1,1.47c1.91.48,2.73.78,2.73.78s47.94,17.43,55.57,63.2c0,0,369.38-2.18,580.77-104.61Z" transform="translate(-16.36 -5.4)"/></svg>