<?xml version="1.0" encoding="utf-8"?>
<!-- Generator: Adobe Illustrator 24.0.0, SVG Export Plug-In . SVG Version: 6.00 Build 0)  -->
<svg version="1.1" id="Layer_1" xmlns="http://www.w3.org/2000/svg" xmlns:xlink="http://www.w3.org/1999/xlink" x="0px" y="0px"
	 viewBox="0 0 1369.7 168" style="enable-background:new 0 0 1369.7 168;" xml:space="preserve">
<style type="text/css">
	.st0{fill:url(#SVGID_1_);}
	.st1{fill:url(#SVGID_2_);}
	.st2{fill:url(#SVGID_3_);}
	.st3{fill:url(#SVGID_4_);}
	.st4{fill:#353435;}
	.st5{fill:none;}
	.st6{fill:url(#SVGID_5_);}
	.st7{fill:url(#SVGID_6_);}
	.st8{fill:url(#SVGID_7_);}
	.st9{fill:url(#SVGID_8_);}
	.st10{fill:url(#SVGID_9_);}
	.st11{fill:url(#SVGID_10_);}
	.st12{fill:url(#SVGID_11_);}
	.st13{fill:url(#SVGID_12_);}
	.st14{fill:url(#SVGID_13_);}
	.st15{fill:url(#SVGID_14_);}
	.st16{fill:url(#SVGID_15_);}
	.st17{fill:url(#SVGID_16_);}
	.st18{fill:url(#SVGID_17_);}
	.st19{fill:url(#SVGID_18_);}
	.st20{fill:url(#SVGID_19_);}
	.st21{fill:url(#SVGID_20_);}
	.st22{fill:url(#SVGID_21_);}
	.st23{fill:url(#SVGID_22_);}
</style>
<g>
	<g>
		
			<linearGradient id="SVGID_1_" gradientUnits="userSpaceOnUse" x1="91.5" y1="158.8011" x2="91.5" y2="5.1688" gradientTransform="matrix(1 0 0 -1 0 170)">
			<stop  offset="0" style="stop-color:#FFFFFF"/>
			<stop  offset="0.3958" style="stop-color:#02BEE1"/>
			<stop  offset="0.9892" style="stop-color:#00436D"/>
		</linearGradient>
		<path class="st0" d="M181,39.9C166.3,41,146.4,62,136.5,71.5c-9.8,9.5-15.8,5.9-24.6,4.5c-8.8-1.5-1.8-6.7-1.8-6.7
			c-6.7-1-11.8,3.3-11.8,3.3c-7,0.4-17.3-5.4-22.1-6.7c-4.8-1.3-12-4.2-12-4.2l6.7,0.3C64.5,46,70,24,70,24
			c-23.2,20.1-9.2,50.2-12,46.2c-0.2-0.2-0.3-0.5-0.5-0.7C55,65.1,53,55.9,53,55.9s-5.9,5.7-15.7,14.8c-9.9,9-6.7,29.8-6.7,29.8
			c0.4,6.3-11.3,13.8-19.5,20.8c-3.3,2.8-6.5,5.8-9.1,8.3c21.6-4.1,33.5-17.1,33.5-17.1c2,1.6,7,1.8,7,1.8C36.7,111,35,99,35,99
			c0.9,2.1,4.7,4.9,8,6.5s4.9-2.6,6.6-4.2c1.7-1.5,5.4,0.7,7.8-1c2.3-1.6,9-4.9,14-3.1s8.7-1.3,8.7-1.3c4,2.3,7.3,1.8,7.3,1.8
			c11.8-1.1,11.1,3.6,11.1,3.6C112.8,84.9,91,76.9,91,76.9c7.5,0,14.9,7.5,14.9,7.5l39.6-1.6c-11,2.7-10.9,7.5-10.9,7.5
			c-1.8-3.6-6.9-3-6.9-3c2.9,2.3,5.4,6.8,9.3,13.6c3.8,6.9,11,14.9,18.7,21.1s12.6,3.4,12.6,3.4s-0.7-1-4.1-2.5
			c-3.5-1.5-3.7-9.8-5-15.9s-3.7-14-3.7-20.1s9.4-20.6,13.6-27.2c4.2-6.6,6-9.9,6-9.9c0.7-0.8,2.8,0.6,2.8,0.6s2.6-1.7,2-4.9
			C179.3,42.4,181,39.9,181,39.9z"/>
		
			<linearGradient id="SVGID_2_" gradientUnits="userSpaceOnUse" x1="113.55" y1="158.8007" x2="113.55" y2="5.1696" gradientTransform="matrix(1 0 0 -1 0 170)">
			<stop  offset="0" style="stop-color:#FFFFFF"/>
			<stop  offset="0.3958" style="stop-color:#02BEE1"/>
			<stop  offset="0.9892" style="stop-color:#00436D"/>
		</linearGradient>
		<path class="st1" d="M118.6,88.7c0,0-5.7,0-10.1,3.4c0,0,2.7,4.5,9.2,4.4C117.7,96.5,112.4,93,118.6,88.7z"/>
		
			<linearGradient id="SVGID_3_" gradientUnits="userSpaceOnUse" x1="107.7" y1="158.8058" x2="107.7" y2="5.1663" gradientTransform="matrix(1 0 0 -1 0 170)">
			<stop  offset="0" style="stop-color:#FFFFFF"/>
			<stop  offset="0.3958" style="stop-color:#02BEE1"/>
			<stop  offset="0.9892" style="stop-color:#00436D"/>
		</linearGradient>
		<path class="st2" d="M96.6,106.3c0,0-6.3,10.1-12.3,13.3c0,0,28.1,11.5,46.8,6.7C131,126.3,106.9,123.4,96.6,106.3z"/>
		
			<linearGradient id="SVGID_4_" gradientUnits="userSpaceOnUse" x1="75.25" y1="158.8129" x2="75.25" y2="5.1611" gradientTransform="matrix(1 0 0 -1 0 170)">
			<stop  offset="0" style="stop-color:#FFFFFF"/>
			<stop  offset="0.3958" style="stop-color:#02BEE1"/>
			<stop  offset="0.9892" style="stop-color:#00436D"/>
		</linearGradient>
		<path class="st3" d="M91.2,104.1c-6.9,4.1-13.4,2.2-21.4,0.5c-8-1.6-10.5,4-10.5,4c2.6-1.4,4.9,0,16.9,2.3
			C88,113.2,91.2,104.1,91.2,104.1z"/>
	</g>
	<g>
		<path class="st4" d="M103.7,3.8c-1.3-0.5-3.2-0.7-3.4,0.1l1.1,0.1c0.1-0.1,0-0.3,0.3-0.4c-0.2,0.2,0.2,0.3,0.6,0.3
			c0.4,0.1,1,0.1,1.1,0.2c0.1,0.3-1.2-0.2-1.1,0c0.4,0,0,0.2-0.2,0.2c-0.2-0.1,0-0.3,0-0.3c-0.5-0.2-0.6,0.2-1.3,0
			c-0.1,0.2,0.3,0.2,0.4,0.3c-1.3,0.1-0.8-0.5-1.5-0.6C99.2,3.8,100,3.9,99.4,4c-0.5-0.2-1-0.4-1.8-0.2c0.3,0,0.5,0,0.4,0.2
			c-0.4,0-0.5,0.1-0.7,0.2c-1,0-1.3-0.2-2.2-0.2c-0.1,0.2,0.3,0.2,0,0.3c-1,0-1.3-0.3-2.3-0.3c-0.4,0.2-1.4,0.1-1.8,0.3
			c0.4,0,0.7,0,0.9,0.2c-0.4,0.2-1.5,0.1-2.2,0.2c-0.3,0-0.3,0.3-0.9,0.3C88.7,4.8,89,4.8,89,4.6c-0.9,0.1-1.4,0.3-2,0.4
			c-0.7-0.1-1.8,0.2-2.6,0.5c-0.4,0-0.8,0-1.3,0.1c-0.4,0-0.8,0.1-1.2,0.1c-0.8,0.1-1.5,0.2-1.9,0.5c0-0.3-0.5-0.2-0.9-0.1
			c-0.6,0.4-1.3,0.3-2.1,0.7c0.8-0.5-1.2,0.3-0.9-0.2c0.7-0.5,1.7-0.3,2.4-0.4C78.6,6,79,5.9,79.3,5.9c0.4,0,0.7-0.1,0.9-0.3
			c-0.8,0.2-0.7-0.1-1.3,0.1C79,5.9,78.8,6,78.3,6.1c0-0.2,1.1-0.6,0.4-0.6c0,0.2-1,0.2-0.9,0c0.5-0.2,0.5-0.7,0.1-0.8
			c-1,0.3-1.8,0.4-2.4,0.6c-0.1,0,0,0.2-0.2,0.2c-0.2,0.1-1,0.1-0.9,0.3c0.3,0,0.6-0.1,0.9-0.2s0.7-0.2,0.9,0c0,0.1-0.1,0.6-0.8,0.8
			c0.4-0.1,0.5,0,0.5,0.3c-0.2,0-0.2,0.1-0.4,0.2C74.8,7.2,74.6,7,74,7.2c-0.1,0.4-1.1,0.2-1,0.6c0.6,0.1,1.4-0.5,2.1-0.7
			c0,0.2-0.8,0.4-0.8,0.6c0.5-0.1,1-0.3,1.4-0.4s0.8-0.3,1.2-0.4c0,0.1-0.3,0.2,0,0.2c2.9-1.1,7.3-1.2,11.1-2c-0.2,0-0.3-0.1,0-0.2
			c0.2,0.1,1,0,1.1,0.2c0.6-0.4,1.5-0.1,2.2,0c0.5,0,0.8-0.1,1.3-0.1c0.4,0,0.7,0.1,1.1,0.1c1.3-0.1,2.8,0,4.3,0
			c1.5,0.1,3.1,0.2,4.6,0.4c1.5,0.2,3.1,0.3,4.5,0.6c0.7,0.1,1.4,0.3,2.1,0.4s1.3,0.3,1.9,0.4c0.4-0.2-0.7-0.2-0.6-0.4
			c0.9,0.1,1.5,0.8,2.2,0.5c-0.6-0.2-0.8-0.3-1-0.4c0.4-0.1,0.7,0.2,1.5,0.3c-0.5,0.2,0.1,0.2,0.1,0.6c-1-0.1-2.1-0.4-3.5-0.7
			c-0.9-0.2-2-0.5-2.4-0.2c0.5,0.1,1.3,0.2,2.2,0.4c0.9,0.2,1.7,0.4,2.3,0.6c0.4-0.2,1.3,0.2,1.5,0.3c2.8,0.7,5.7,1.7,7.8,2.2
			c-0.1-0.1-0.9-0.5-0.3-0.3c0.7,0.3,0.6,0.5,1.1,0.8c0.6,0-0.4-0.3,0-0.6c0.4,0.3,1.2,0.7,0.6,0.8c0.6,0.2,1.3,0.8,1.7,0.6
			c-0.6-0.2-1-0.4-1.2-0.7c0.2-0.1,0.7,0,1.1,0.2s0.7,0.4,0.5,0.6c0.6,0.4,0.5,0,0.9,0.1c0.5,0.6-0.6,0.1-1,0.1
			c0.4,0.4,1.2,0.8,2.1,1.1c0.3-0.2-1-0.5-0.6-0.8c1.3,0.8,1.8,0.6,3,1c-0.6,0.3,1.5,0.8,0.9,1.1c-0.6-0.5-1.4-0.5-1.9-1.1
			c0.2,0.1,0.6,0.3,0.6,0.2c-0.2-0.1-0.2-0.2-0.3-0.3c-0.4-0.2-0.3,0-0.5,0c-0.4-0.1-0.8-0.3-0.5,0.1c0,0.3,0.4,0,0.8,0.3
			c0.9,0.6,2.2,1.4,3,1.4c-0.2-0.2-1.1-0.4-0.9-0.6c0.1-0.1,0.1-0.2,0.3-0.1c-0.3,0.2,0.4,0.5,1,0.9c-0.1,0.1-0.3,0-0.3,0.1
			c1.1,0.6,2,1.1,2.7,1.5c0.8,0.5,0.9,0.5,1.5,0.9c0.5,0.3,1.2,0.6,1.3,0.7c0,0,0.2,0.3,0.4,0.5c0.7,0.6,1.4,0.9,1.8,1.2
			c0.4,0.3,0.6,0.6,1,0.8c0.2,0.2,0.5,0.2,0.8,0.4c0.2,0.1,0.2,0.3,0.5,0.5c0.2,0.2,0.5,0.1,0.6,0.3c0.1,0.1,0.3,0.5,0.2,0.5
			c-0.8-0.5-1-1-1.6-0.8c-1.2-1.2-2.2-1.2-3.2-2.3c-0.2,0-0.3,0-0.5,0c-0.4-0.8-2.7-1.8-3.8-2.5c-0.5-0.3-0.8-0.7-1.2-0.9
			c-1.3-0.8-2.8-1.3-3.7-1.9c-0.3-0.1-0.2,0.3-0.6,0.1c-0.8-0.4-0.7-0.7-1.7-1c-0.4,0,0.1,0.5-0.8,0.1c0.3-0.2,0-0.4-0.2-0.6
			c-0.9-0.3-0.9-0.4-1.6-0.6c-0.8-0.8-1.9-0.7-3.2-1.2c-0.1,0.1-0.1,0.3-0.3,0.2c0.1-0.2-0.2-0.3-0.3-0.4c-1.2-0.4-2.2-0.6-3.4-0.9
			c-0.3-0.1-0.1-0.2-0.6-0.3c-0.4-0.1-1-0.3-1.6-0.4c-0.6-0.1-1.3-0.2-2-0.4c-0.3-0.1-0.3-0.2-0.6-0.2c-0.8-0.1-1.6-0.3-2.5-0.4
			s-1.7-0.2-2.4-0.3c-0.4-0.1-0.5-0.2-0.8-0.2c-0.5,0-1.1,0.1-1.5,0c-0.6-0.1-1.5-0.3-1.9-0.1c-0.2-0.1-0.5-0.1-0.6-0.2
			c-0.5,0-0.7,0.1-1.1,0.1c-0.9,0-2.3-0.3-3.2-0.3c-0.3,0-0.5,0.1-0.7,0.1s-0.2-0.2-0.6-0.2S95.4,6.9,95,6.9c-0.1,0-0.5-0.1-0.9-0.1
			c-1,0.1-2.7,0.4-3.5,0.4C90.1,6.6,89.9,7,89.5,7c-0.1,0-0.3-0.1-0.7-0.1c-1.2,0-2,0.3-2.6,0.4c-0.3,0.1-0.7,0-1.1,0
			c-0.8,0.1-1.2,0.3-1.9,0.2c-0.6,0.2-0.9,0.4-1.5,0.5c0.1-0.1,0.4-0.5-0.1-0.5c-0.5,0.1-0.1,0.5-1,0.5c0-0.1,0.3-0.2,0.4-0.3
			c-1.9,0.2-3.1,0.8-4.7,0.9c0,0.2,0.3,0.1,0.5,0.2c-0.9,0-1.7,0.3-2.7,0.7c-0.7,0-1.4,0.2-2,0.4s-1.1,0.5-1.6,0.7
			c-1.6,0.6-4.5,1.7-5.5,2c-0.7,0.3-1.3,0.7-1.9,0.9c-1.2,0.5-2.5,1.1-3.2,1.4c-0.2,0.1-0.2,0.2-0.5,0.4c-0.4,0.2-0.7,0.4-1.1,0.5
			c-0.3,0.2-0.7,0.4-1,0.6c-0.7,0.4-1.3,0.8-2.1,1.2c-8.6,5-16.8,11.9-22.7,20.4c0.2,0.1,0.4-0.1,0.6,0.2c-0.4,0.5-0.8,1-1,0.9
			c0.5-0.6,0.6-0.8,0.2-0.9c-0.6,0.6-0.2,0.6-0.6,1.2c-0.4,0.1-1,1.1-1.5,1.8c0.1,0.1,0.2,0.1,0.1,0.3c-0.8,0.8-0.6,2-0.8,1.3
			c-0.2,0.2-0.2,0.7-0.4,0.8c0,0-0.1-0.1-0.2-0.1c-0.3,0.4-0.7,1.1-1.1,1.7c-0.4,0.7-0.8,1.5-1.2,2.2c-0.5,0.9-1,2-1.4,2.9
			c-0.1,0.3-0.1,0.6-0.2,0.9c-0.5,1.1-1.1,2.2-1.3,3.2c0.3-0.1,0.3-1,0.5-0.9c0.3-0.1,0,0.5-0.2,0.9c0.2,0,0.1,0.3-0.1,0.7
			c0.2,0.1,0.4-0.2,0.3,0.4c-0.3,0.7-0.6,1.5-0.9,1.5c0.6-1,0.7-1.8,0.4-2.2c-0.2,0.2-0.4,0.5-0.5,0.9s-0.2,0.8-0.3,1.1
			c-0.1,0.4-0.3,0.4-0.4,0.8c-0.1,0.4,0,0.8-0.1,1.1c0,0-0.3,0.2-0.4,0.5c-0.2,0.5,0.1,0.7-0.3,1.3c0.1-0.2,0.3-0.8,0.2-0.9
			c-0.3,0.6-0.3,1.2-0.5,1.9c-0.4,1.2-1,2.9-0.6,3.2c0.4-0.5,0.1-0.7,0.3-1.3c0.1,0,0.2-0.3,0.3-0.4c0,0.7,0.3,0.5,0.6,0.2
			c-0.1,0.4-0.4,1,0,0.9c0.1-0.8,0.3-1.8,0.8-1.7c0.1,0.2,0,0.6-0.1,1.1c-0.1-0.1-0.1-0.4-0.1-0.5c-0.2,0.5-0.2,0.8-0.2,1
			c0.2,0.2,0.3-0.3,0.4-0.3s0.2,0.2,0.3,0.1c0.1-0.1,0.3-0.9,0.4-0.5c0.4-0.6,0-1.1,0.3-1.2c-0.1,0.6,0.2,0.6,0.2,0.7
			c-0.1,0.8-0.4,0.3-0.5,0.7c0,0.3,0.5,0.2,0.1,0.9c-0.4,0.1,0-0.7-0.4-0.6c-0.3,0.7,0,0.7,0,1.1c-0.3,0.3-0.5,0-0.7-0.2
			c-0.1,0.2-0.2,0.5-0.3,0.3c-0.3,0.6-0.1,0.8-0.1,1.1c-0.4,0.5-0.1-0.6-0.4-0.1c-0.2,1.1-0.4,1.1-0.7,0.7c-0.2,0.7-0.1,0.9,0,1.3
			c-0.2-0.1-0.2,0.7-0.3,1c0.2,0.3,0.3-0.7,0.5-0.5c-0.1,0.6,0.4,0.3,0.3,0.9c-0.3-0.2-0.5,0-0.7,0.1c-0.2,0.5,0.2,1-0.2,1.3
			c0-0.4-0.3-0.7-0.5-0.3c0.1-0.6,0.1-0.7-0.1-0.5c-0.3,0.1,0.1,0.4,0,0.7c-0.2-0.1-0.3,0.1-0.4,0.6c0.2,0,0.3,0.1,0.3,0.3
			c0.1-0.3,0.1-0.8,0.2-0.8c0.1,0.5,0.3,1.3-0.1,1.9c0.4,0.2,0.5-0.7,0.9-0.5c0.1-1.2,0.5-0.9,0.6-2c0-0.3-0.3-0.1-0.3-0.5
			c0.2-0.5,0.4-1,0.6-1.8c0.3-0.6,0.8,0,1.1-1.2c-0.2-0.4-0.6,0.7-0.6,0c0.2-0.3,0.4-0.7,0.7-0.7c0.1-0.5,0.3-1.2,0.5-1.1
			c-0.2,0.8-0.5,1.1-0.3,1.6c0.3-1.1,0.7-2.3,0.9-3.2c0.1-0.3,0-0.4,0.1-0.8c0,0,0.4-0.7,0.1-0.6c-0.2,0.1-0.3,0.7-0.5,0.5
			c0.1-0.2,0-0.3,0-0.4c0.2-0.5,0.4-0.3,0.6-0.9c-0.3-0.2-0.5,0.5-0.7,0.6c0-0.5,0.3-1.1,0.6-1.3c0.4-0.3,0,0.1,0-0.4
			c0.1-0.4,0.4-1.1,0.5-0.5c0.3-0.6-0.2-0.4,0-0.9s0.4-1.2,0.6-1.1c0.4-0.1-0.5,1.6-0.1,1.1c0.4-1.1,0.8-2,1.1-2.9
			c0.4-0.9,0.7-1.6,1-2.3c-0.1-0.1,0-0.5-0.1-0.7C26.8,53,26.9,54,26.7,54c0.1-0.5-0.5,0-0.3-0.4c0.3-0.5,0.7-1.3,0.8-1.5
			c0.1,0.3,0.4,1.2,0.8,0c-0.2-0.2-0.3,0.2-0.5,0c0.3-0.8,0.5-1.4,0.3-1.8c0.4,0,1.3-1.3,1.5-2.2c0.3,0.1,0.8-0.9,1.1-0.8
			c0,0.5-0.4,1.2-0.8,2c-0.3,0.6-0.4,1.3-0.6,1.8c-0.4,1-1.2,2.1-1.6,3.3c-0.3,0.9-0.7,1.9-1.1,2.8c-0.3,1-0.6,1.8-0.9,2.4
			c0.2-0.1-0.2,0.9-0.2,1c0,0-0.1-0.2-0.1-0.3c-0.5,0.9-0.9,3,0,2c-0.1-0.3,0.2-1.1,0.1-1.5c0.1,0,0.3-0.2,0.4-0.1
			c-0.3,1.2-0.3,1-0.5,2c-0.2,0-0.4,0-0.8,0.4c-0.3,0.6,0.1,0.5,0,0.9c-0.3,1.2-0.8,2.5-0.7,3.2c-0.4,0.9-0.6,2-0.8,3
			c-0.2,1-0.2,2-0.3,2.8c0.3-1.3,0.6-0.4,1-0.2c0.2-0.7-0.3-0.6,0-1.5c0.3-0.2,0.7-0.5,0.7,0.4c-0.1,0-0.2-0.1-0.2-0.3
			c-0.3,1.5-0.7,2.7-1.1,3.5c-0.1-0.6,0.6-1.6,0-2.1c-0.1,1.1-0.2,0.5-0.3,0.8c0-0.1,0,0.3,0,0.4c-0.1,0.2-0.2,0.4-0.3,0.6
			c-0.1,0.6,0,1.3-0.1,2.1c0-0.2,0.2-0.5,0.2-0.2c-0.3,3.4,0,4.9-0.1,8.7c0.2,0.2,0.3,0.5,0.5,0.6c0.1-1.1-0.4-1.3,0-1.6
			c-0.1-0.3-0.5,0-0.4-0.6c0.1,0,0.2,0.4,0.3,0c-0.2-0.2,0-1.3,0-1.8c0.3,0.5,0-0.6,0.2-1.2c-0.4,0.2-0.2-0.7-0.4-0.9
			c0.1-0.8,0.4,0.2,0.5-0.6c-0.2-0.4-0.5,0.2-0.5-0.7c0.1-0.5,0.7-0.7,0.3-1.2c0,0.6-0.4,1-0.3,0.6c0-0.7,0.4-0.5,0.4-1.2
			c0-0.5-0.6-0.9-0.2-1.5c0,0.5,0.1,0.7,0.3,0.9c0.3-0.9,0.1-1.4,0.4-2.4c0.2,0,0.3-0.3,0.6-0.1c0.3-1.2,0.4-2.5,0.6-3.1
			c0.2-0.9,0.6-1.7,0.4-2.2L24.6,70c-0.2-0.4-0.1,0-0.5,0.5c-0.1,0.1-0.2,0.2-0.4,0.3c0-0.1,0-1,0.2-1c0,0.2,0,0.5,0,0.6
			c0.3-1-0.1-0.8-0.1-1.5c0.1-0.4,0.2-1.4,0.4-1.1c0.1-1,0.5-2.2,0.2-2.7c0.3-0.3,0.6-0.4,0.8-0.8c-0.1-0.3-0.4-0.3-0.1-0.9
			c0.3-0.4,0.6-0.4,0.8-1.2c-0.1-0.1-0.3,0-0.3-0.3c0.2-0.4,0.1-0.7,0.1-1c0.1-0.3,0.3-0.3,0.4-0.5c0,0-0.2-0.4,0.1-0.4
			c0.1,0.1-0.1,0.5,0.1,0.5c0.2-0.8,0.5-0.5,0.7-1.3c-0.3-0.1,0.2-0.9,0.2-1.2c0.1,0,0.2-0.2,0.3-0.1c0.1,0.4-0.5,0.8-0.3,1.2
			c0-0.5,0.5-0.4,0.3-0.1c-0.2,0.4-0.5,0.5-0.7,1.2c-0.1-0.1-0.3,0.2-0.2,0.3c0.3-0.4,0.6-0.3,0.2,0.5c-0.4-0.2-0.7,0.2-1,0.7
			c0.2,0.8,0.5-0.7,1-0.3c-0.2,0.9-0.7,0.8-0.6,1.5c-0.3,0.2-0.5,0.1-0.8,0.6c0,0.2,0,0.4,0.1,0.7c-0.3,0.3-0.6,2.4-0.7,1.7
			c-0.2,0.6,0.1,0.6,0,1.1c-0.2,1.1-0.5,1.7-0.4,2.4c0.4-0.4,0.2-1,0.3-1.4c0-0.1,0.3,0.1,0.3-0.3c-0.2-0.1-0.2,0.2-0.4,0.3
			c0.1-0.8,0.3-0.9,0.6-0.9c0.1-0.9,0.4-2,0.8-3.1c-0.1-0.1-0.3,0.2-0.3-0.1c0.2-0.6,0.5-0.2,0.7-0.6c0.1-0.6,0.4-1.4,0.6-2.1
			c0.3-0.7,0.5-1.4,0.5-1.7c-0.1,0.2-0.2,0.5-0.3,0.5c0.2-0.8,0.5-0.8,0.7-1.2c0.3-0.8,0.4-1.4,0.5-2c0.1,0,0.3,0.2,0.4-0.2
			c0.2-0.8-0.3,0.1-0.3-0.3c0.1-0.2,0-0.3,0.1-0.4c0.2-0.2,0.3,0.1,0.5-0.4c0.6-1.3,0.4-1.8,0.7-2.8c0.3,0,0.8-0.7,0.8,0
			c0.1-0.3,0.6-0.9,0.4-0.9c-0.3,0.3-1,0.9-0.7,0c0.5,0.2,0.8-1.4,1.5-1.7c-0.2,0.4-0.2,0.6-0.1,0.7c0.4-0.7,0.4-1.1,0.9-1.8
			c0.2-0.3,0.4-0.2,0.7-0.8c-0.3-0.3,0-1.1,0.2-1.8c-0.1,0.1-0.2,0.2-0.3,0.1c0.6-0.7-0.1-0.6,0.4-1.2c0.4,0,0,0.4,0.1,0.6
			c0.5-1.2,1.7-2.1,1.7-3c-0.4,0.2-0.4,0.6-0.7,1c-0.3,0.1-0.6,0-0.9,0.3c0,0.4,0.7-0.3,0.4,0.3c-0.6,0.8-1,1.1-1.4,1.7
			c-0.3-0.4,1-1.4,0.8-1.7c-0.8,1.3-0.3-0.2-0.8,0.2c0.1,0.1-0.1,0.4-0.2,0.3c-0.3-0.4,0.6-0.7,0.5-0.9c-0.5,0.3-0.7,0.4-1,1.3
			c-0.3-0.1-0.7,0.8-1,0.8c0.2-0.3,0.4-0.8,0.4-1c-0.5,0.5-0.5,1.2-0.8,1.2c-0.4,0,0.3-0.9,0.5-0.9c-0.3-0.1-0.1-0.5,0.1-0.9
			c0.2-0.1,0.5-0.5,0.8-0.5c-0.3,0.4-0.4,0.7-0.3,0.8c0.3-0.5,0.2-0.7,0.5-1.2c0.1,0,0.2,0.1,0.4-0.2c0-0.5,0.4-0.7,0.6-1.1
			c0.1-0.1-0.1-0.2,0.1-0.5c0,0,0.3-0.2,0.5-0.4c0.3-0.4,0.6-0.9,1-1.3c0.4-0.5,1.1-1.4,1.1-1.8c-0.2,0.3-0.6,0.9-0.7,0.5
			c0.3-0.4,0.4-0.3,0.7-0.8c0.3-0.6-0.3-0.3-0.2-0.7c0.2,0.4,0.8-0.7,1.1-0.7c0.4-0.5,0.4-1.3,1.1-1.6c-0.5,0.5-0.1,0.5-0.3,0.8
			c-0.5,0.7-0.7,1-1.4,1.6c0.1,0.2-0.4,0.7-0.1,0.7c0.4-0.7,1.1-1.4,1.7-2.1c0.6-0.7,1.2-1.3,1.4-1.8c0.1,0.1,0.4-0.3,0.6-0.3
			c0-0.3,0.5-0.7,0.8-1c0.2-0.3,0.6-0.8,0.8-1c0.1-0.1,0.3,0,0.4-0.1c0.5-0.5,1-1,1.6-1.6c0.3-0.3,0.5-0.6,0.8-0.8
			c0.3-0.3,0.6-0.6,0.9-0.8c0-0.2-0.5-0.2-0.1-0.5c0.3-0.2,0.4,0,0.8-0.3c0-0.3-0.7,0.2-0.2-0.3c0.1,0.1,0.2,0.1,0.4-0.1
			c0.7-0.9,1.4-1.1,2.1-1.7c0.1,0,0.1-0.2,0.3-0.3c0.1-0.1,0.3-0.1,0.4-0.2c0,0-0.1-0.4,0.4-0.5c0.3-0.2,0.3,0.1,0.6-0.2
			c0.7-0.4,0.1-0.5,0.7-0.8c0.4,0.1,1.2-0.5,1.8-0.7c-0.7,0.5-1.7,1.1-2.6,1.8c-0.9,0.7-1.8,1.4-2.5,1.9c-0.3,0.2-0.8,0.3-0.6,0.6
			c0.9-0.6,2.2-1.6,3.4-2.6c1.3-0.9,2.6-1.9,3.7-2.5c-0.2-0.4-1.1,0.4-1.3-0.1c-0.5,0.3-1,0.7-1.2,0.9c-0.2,0-0.4,0-0.4-0.3
			c0.7-0.4,0.9-0.8,1.5-1.2c-0.2,0,0.1-0.6,0.3-0.4c0.4,0.1-0.5,0.4-0.2,0.5c0.8-0.3,0.6-0.2,1.2-0.8c0.4-0.1,0.8-0.3,0.9,0
			c-0.3,0.2-0.6,0.4-0.4,0.5c0.4-0.3,0.5-0.1,0.9-0.5c-0.2-0.2,0.2-0.7,1.2-1.3c-0.5-0.1,0-0.5,0.5-0.9c0.7-0.4,0.7,0,1.5-0.4
			c1-0.4,0.8-0.7,1.6-1.1c-0.2,0.4,0.3,0.3,0.8,0.2c-0.1-0.1,0.5-0.3,0.5-0.4c-0.3,0.2-0.6,0.1-0.3-0.1c0.6,0,0.6-0.1,0.4,0.3
			c0.9-0.3,0.1-0.5,0.8-0.7c0.3-0.1,0.3,0.1,0.3,0.3c0.6-0.3,1.5-0.6,1.5-0.9c-0.3,0.2-0.5,0.1-0.5-0.1c0.2,0.1,1.1-0.5,1.2-0.3
			c-0.6,0.3-0.3,0.6-0.8,0.9c0.9-0.3,1.7-0.7,2.6-1s1.8-0.7,3.1-1.1c0.5-0.4,0.8-0.8,2-1.2c-0.1,0.2,0.4,0.4-0.1,0.5
			c-0.6,0.2-0.8-0.1-1,0.3c0.4,0,1.2-0.3,1.3,0.1c-0.7,0.1-1.5,0.4-1.9,0.3c-0.7,0.4-2.6,1.4-3.3,1.3c-0.7,0.7-1.5,0.7-2.6,1.2
			c0,0.1,0.1,0.2-0.1,0.3c-0.6,0-1.7,0.7-2.5,1.1c-0.4,0.3,0.3,0.1-0.1,0.3c-0.5,0-1.2,0.3-1.9,0.7c-0.7,0.4-1.4,0.9-1.8,1.2
			c0.3,0,0.5,0.2,1.1-0.2c0.2-0.2,0.3-0.5,0.6-0.7c0.2,0.2-0.3,0.5-0.1,0.7c0.2-0.1,0.5-0.4,0.9-0.6c0.3-0.2,0.6-0.2,0.7,0
			c-0.3,0.2-0.5,0.1-0.8,0.3c-0.1,0.2,0,0.4-0.1,0.6c0.5-0.2,1-0.9,1.4-1.3c0.2,0.1,0.9-0.4,1-0.3c0.5-0.2,0.6-0.7,1.1-0.6
			c-0.5,0.2-0.8,0.4-0.6,0.6c0.9-0.3,1.3-1,1.8-1c0,0.2-0.8,0.4-0.8,0.7c0.7,0,0.6-0.4,1.3-0.6c0.3,0.2-0.1,0.5-0.2,0.7
			c1.2-0.4,0.8-0.8,1.7-1.2c0.2,0.2-0.6,0.5,0,0.5c2.4-1.1,4.5-1.4,5.8-2.2c0.3,0,0.5,0.1,1,0c0.3-0.1,0.3-0.3,0.5-0.4
			c0.4,0.2,1.1-0.2,1.8-0.4c1.4-0.4,3.2-0.5,4.9-0.9c1.2-0.2,2.2-0.5,3.2-0.5c0-0.1-0.1-0.3,0.4-0.3c0,0.2,0.1,0.3,0.2,0.3
			c1.9-0.3,3.1-0.2,4-0.5c0,0.3,0.5,0.3,1,0.3c0.7-0.3,1.4-0.5,1.6-0.9c0.8,0.1,1.4,0.2,2.2,0.3c-0.3,0.2-1.5,0.1-1,0.2
			c0.2,0,0.5-0.1,1,0.1c0.5,0.2-0.3,0.1-0.2,0.4c0.9-0.1,1.7-0.1,2.2-0.1c-0.1,0-0.2-0.1,0-0.1c0.9,0,2,0,3.1,0
			c1.1,0.1,2.3,0.1,3.5,0.3s2.4,0.3,3.5,0.5s2.2,0.4,3.1,0.6c-0.3-0.1,0-0.1,0.4,0c-0.2-0.5,1-0.4,1-0.1c-0.5,0-1.3,0.1-0.9,0.4
			c1.2,0.4,0.2-0.3,1.1-0.1c0.5,0.2-0.3,0.2,0.1,0.4c1.1,0.2,2,0.5,2.9,0.7c0.9,0.2,1.7,0.4,2.5,0.6c0,0.1,0.2,0.2-0.1,0.3
			c1,0.4,1.6,0.3,2.3,0.7c0-0.3,0.4-0.2,0.8,0c-0.1,0.2-0.5,0.2-0.7,0.2c-1-0.3-2.3-0.9-3-0.9c0.9,0.4,2.7,0.7,3.7,1.4
			c-0.1-0.4,0.5-0.1,1,0.1c0.5,0-0.2-0.4,0.5-0.1c0.2,0.2-0.1,0.1,0.3,0.4c0.4,0.2,0.9,0.3,1.3,0.5c0.2,0.1,0.2-0.1,0.4,0
			c0.4,0.4,0.8,0.7,1.7,1l-0.1,0.2c0.6,0.3,0.6-0.2,1.2,0.2c0.1,0.3,0.6,0.6,0.9,0.9c-0.5-0.1-1.1-0.5-1.8-0.8
			c-0.7-0.3-1.6-0.9-1.9-0.6c0.5,0.2,1,0.4,1.6,0.7c0.6,0.3,1.1,0.6,1.7,0.9s1.2,0.6,1.7,0.9c0.6,0.3,1.1,0.6,1.6,0.8
			c-0.1-0.6,0.8,0.1,1.1,0.1c-0.6-0.5,0.5,0,0.1-0.6c0.5,0.4,0.5,0,1,0.3c0.6,0.7,0.6,1,0.7,1.4c0.6,0.3,1.1,0.7,1.6,1.1
			s1,0.8,1.5,1c-0.2,0-0.5-0.4-0.4-0.4c0.3,0.1,1.3,1.1,1.6,0.8c0.1,0.3,0.1,0.5,0.6,0.9c0.2,0,0.6,0.3,0.8,0.3l-0.2,0.2
			c0.5,0.5,0.6,0.1,1.1,0.5c-0.6,0.1,0.9,0.9,0.9,1c-0.2-0.2-0.2-0.3-0.2-0.4c0.7,0.8,0.2-0.1,0.6,0.2c-0.2,0.4,0.5,0.4,0.8,0.6
			c0,0.4,0.4,0.9,1.2,1.6c0.1-0.4,0.6,0.2,0.8,0.3c-0.1,0.1-0.2,0.2-0.4,0.1l1,1c0.2,0,0.2-0.5,0.5-0.3c0.4,0.2,0.2,0.2,0.6,0.5
			c0,0.3-0.7-0.1-0.1,0.4c0.8,0.8,0.2-0.2,0.6,0l0.4,0.4c-0.2,0.2-0.4-0.1-0.3,0.3l1,1c0.1-0.1,0.2-0.2,0.5,0.1
			c0.4,0.5-0.6-0.1,0.1,0.5c0,0,0.7-0.2,0.9,0.6c-0.2-0.3-0.4-0.3-0.5-0.3c1,1.1,1.3,1.5,2.3,2.7c0.4,0.3,0-0.5,0.5-0.1
			c0.4,0.6-0.2,0.2-0.1,0.6c1.1,1.4,2.2,2.6,2.7,3.6c0.1,0,0.2-0.1,0.4,0.2c0.3,0.6,0.6,1.2,1.1,1.7c0.2,0.3,0.4,0.3,0.6,0.6
			c0.2,0.3,0.4,0.9,0.7,1.2c0.1,0.2,0.4,0.2,0.5,0.4c0,0,0,0.4,0.2,0.6c0.2,0.5,0.5,0.9,0.8,1.4c0,0.1,0.1,0.1,0.1,0.1
			c0.6-0.6,1.2-1.2,1.8-1.8c-0.3-0.4-0.4-0.8-0.8-1.4c0.3,0.2,0.6,0.8,0.9,1.3l0.1-0.1c-0.3-0.5-0.6-1.1-1-1.7c-0.4-0.4,0,0.5-0.4,0
			c-0.1-0.2,0.1-0.6-0.2-0.6c0.1,0.5-0.8-0.7-1-0.8c0.2-0.3-0.6-1,0.1-0.8c-0.2-0.3-0.3-0.3-0.5-0.4c-0.6-1.1-1.5-1.9-2.2-3.2
			c-0.4-0.1,0.2,0.8-0.3,0.4c-0.2-0.4,0.1-0.6-0.4-1.2c-0.3,0.3-0.2-0.2-0.6-0.6c-0.1,0.3-0.4-0.1-0.7-0.3c0.1-0.3-0.3-0.9-0.5-1.4
			c-0.3,0.1-0.8-0.7-1.2-1.1c-0.5,0,0.5,0.7,0.3,0.8c-0.5-0.8-1-1-1.1-1.5c-0.5-0.4-0.9-0.5-1.4-0.9c0.2-0.1,0.6,0.5,0.7,0.2
			c-0.7-0.6-1.2-1.4-1.6-1.8c-0.4-0.5-1-1.1-1.5-1.1c0.5,0.7,1.3,0.9,1.7,1.7c-0.3-0.1-0.7-0.4-1.1-0.7c-0.6-0.5-1.1-1.3-1.6-1.5
			c-0.1-0.3-0.4-0.7-0.9-1.1s-1-0.8-1.4-1.2c-0.1-0.1-0.4-0.2-0.6-0.3c-0.3-0.2-1-1-1.1-0.6c-0.1,0.2,0.9,0.3,0.8,0.7
			c-0.3,0.4-0.7-0.6-1.3-0.7c0.4,0.1,0.2-0.2-0.3-0.6c-0.5-0.2,0.1,0.5-0.5,0.2c0.1-0.3-0.8-0.9-0.6-1.2c-0.4-0.5-0.6-0.3-0.9-0.5
			c0,0-0.2-0.3-0.4-0.5s-0.5-0.3-0.7-0.5c0.3-0.1,0-0.4-0.1-0.5s-0.1-0.3-0.3-0.2c0.2,0.1,0.2,0.3,0.2,0.4c-0.7-0.5-1.2-0.8-1.7-0.8
			c0.4,0.6,0.9,0.3,1.6,1c0.1,0.1,0.6,0.7,0.2,0.5c-0.1-0.2-0.4-0.4-0.8-0.7c-0.1,0-0.3,0-0.5,0c-1.4-0.9-2-1.4-3.6-2.3
			c0.2-0.3-0.2-0.7-0.2-1.2c-0.7-0.5-1.6-1.1-2.4-1.7c-0.9-0.5-1.7-1-2.4-1.4c-0.3,0-0.8-0.2-1.2-0.3c-0.3-0.4-2.1-1.2-2.8-1.3
			c0.1,0,0.2,0.2,0,0.1c-1.1-0.8-2.8-1.1-4.6-1.8c-0.1,0.1-0.1,0.3-0.3,0.2c-0.6-0.2-0.7-0.5-1.5-0.8c-0.4-0.1-0.9,0-1.2-0.2
			c0,0,0.4-0.1,0.1-0.2c0,0-0.3,0.1-0.5,0.1c-0.7-0.1-1.4-0.4-2.3-0.7c-0.8-0.2-1.7-0.4-2.5-0.4c0.4,0.2,1.6,0.2,1.4,0.5
			c-1.5-0.2-1.5-0.7-3.1-1c-0.3,0.1-1.2,0.4-1.5-0.1c0.3,0,0.7,0.1,0.6-0.1c-1.1-0.3-2.4-0.3-3.3-0.4c-0.4,0-1-0.3-1,0
			c0.4,0.1,1,0,0.8,0.3c-0.7-0.1-0.9-0.3-1.4-0.5c-0.2,0-1.3-0.1-0.6,0c0.2,0,0.6,0,0.6,0.1c-0.8-0.2-0.1,0.4-0.7,0.3
			c0-0.3-1.8-0.4-1.2-0.7c-1.3-0.4-2.9-0.1-4.3-0.3c-0.5,0.1,0.2,0.2-0.2,0.3c-0.4-0.1-0.7-0.3-1.4-0.2c-0.3,0-0.2,0.2-0.4,0.2
			c-0.8,0-1.6-0.1-2.3-0.1c-0.2,0-0.8,0.4-0.8,0.1c0.1-0.2,1-0.1,1-0.3c-0.6,0-1-0.1-0.8-0.4c1.3,0.1,2.7,0,4-0.3
			c0.8,0.1,1.6,0.2,2.5,0.3s1.8,0.1,2.9,0.1c0-0.3,0.7-0.1,0.5-0.5C100,9.2,98.6,9.4,98.6,9c0.9,0,2.1,0.5,3.1,0.4
			c0.4-0.3-0.7-0.1-0.6-0.3c0.7-0.1,0.7,0.3,0.8,0.4c0.3,0.1,0.6-0.1,0.6,0.1c0.1,0.4-0.8-0.1-1.1,0c-0.1,0-0.3,0.2-0.5,0.2
			c-0.3,0.1-1-0.1-0.7,0.2c0.7,0.2,0.7-0.1,1.1-0.1c0.1,0,0.6,0.2,1,0.1c0.4,0.1,0.2,0.3,0.8,0.3c1.5,0.1,3.9,0.4,5.8,0.7
			c1.7,0.4,3.2,0.9,4.3,0.9c-0.3,0.3,1.4,0.6,1.6,0.5c-0.9-0.4,0.4-0.2,0.7-0.3c0.3-0.2-0.6-0.2-0.3-0.5c0.4,0.2,0.9,0.3,1.2,0.5
			c0.1,0,0,0.3,0.1,0.3c0.4,0.3,1.1,0.3,1.1,0.6c-0.7,0-1.4-0.5-1.7-0.8c-0.2,0.1-0.9-0.1-0.7,0.3c0.6,0.1,0.5,0.3,1,0.4
			c0.3,0.1,0.2-0.1,0.5,0c2,0.9,3.6,1.1,6.1,2.2c0.2,0.1,0.2-0.1,0.5,0c0.5,0.5,0.7,0.4,1.5,0.8c0.7,0.3,1.5,0.7,2.2,1
			s1.2,0.6,1.5,0.5c0.4,0.4,1,0.4,1.7,0.9c0.1-0.4,0.4,0.2,0.7,0c0,0-0.3-0.5,0.1-0.2c0.5,0.4,0.8,0.3,1,0.8
			c-0.2,0.4-0.8-0.7-1.1-0.3c1,0.6,1.2,0.8,2.2,1.3c-0.1,0.1-0.4,0,0.1,0.3c0.7,0.2-0.2-0.4,0.1-0.5c0.6,0.3,0.4-0.3,0.6-0.2
			c0.3,0.4,0.1,0.4-0.1,0.5c0.5,0.3,0.9,0.5,0.8,0.7c-0.5-0.3-0.9-0.6-0.9-0.2c0.4,0.3,0.7,0.3,1.2,0.5c0.5,0.3,0.9,0.9,1.3,0.7
			c-0.4-0.4-1.6-0.8-1.1-1c0.7,0.5,1.5,1.1,2.5,1.6c-0.7,0,0.7,0.4,0.9,0.9c0.5,0.2,0.1-0.5,0.5-0.2c0.9,0.5,0.2,0.6,1,1.1
			c0.6,0.4-0.2-0.6,0.5,0c0.3,0.4-0.5,0.1,0,0.6c-0.2-0.1-0.4-0.3-0.5-0.1c0.6,0.4,1.5,1.3,1.9,1.4c-0.2-0.6-1.4-0.9-1.2-1.2
			c0.8,0.7,1.4,1,1.7,0.9c1,1.1,1.8,1.5,2.9,2.7c-0.1,0.1-0.2,0-0.3,0c0.8,0.6,0.9,1,1.6,1.7c-0.1,0.1-0.4-0.1-0.5-0.1l0.9,0.9
			c0-0.4,0.3-0.4,0.9,0.3l-0.3,0.3c0.3,0.3,0.8,0.9,1.3,1.4c0.4,0.4,1,1.2,1.1,1c-0.4-0.6-1.4-1.3-1.5-1.7c0.8,0.8,0.4,0,0.1-0.4
			c0.6,0.1,0.5,0.3,0.9,0.9c0.2,0.3,0.4,0.2,0.6,0.6l-0.2,0.2c0.3,0.5,0.6,0.9,0.9,1.4c0.5,0.4-0.2-0.6,0.3-0.2
			c0.7,0.9,0.9,1.4,1,1.9c0,0.1-0.3-0.1-0.3,0s0.5,0.5,0.5,0.7c0.3-0.2-0.2-0.7-0.1-1c0.4,0.5,0.5,0.2,0.9,0.9
			c-0.2,0.1-0.5-0.5-0.6-0.3c0.1,0.5,0.5,0.4,0.8,0.9c-0.1,0.1-0.3-0.1-0.4,0c0.4,0.3,0.6,0.8,0.9,1.2c0.3,0.4,0.9,0.8,1.2,1.2
			c0.3,0.5,0.3,1,0.8,1.3c-0.1-0.2-0.2-0.5,0-0.3c0.6,0.7,0.1,0.7,0.6,1.4c0.5,0.1-0.3-1.1,0.3-0.7c0.3,0.4-0.1,0.4-0.1,0.5
			s0.4,0.6,0,0.5c0.6,1,1,1.1,1.6,2L158,45c0.6,0.9,0.7,1.1,0.9,1.7c1.6-1.4,3.3-2.8,5.1-3.8c-0.4-0.7-0.9-1.4-1.3-1.8
			c-0.2-0.6-0.6-1.3-1.1-2s-1-1.4-1.6-2.3c-0.7-0.4-1.6-1.6-2.1-2.7c-0.2-0.3-0.5-0.4-0.8-0.8c0,0-0.2-0.4-0.3-0.6
			c-0.4-0.4-1.2-1.2-0.7-1.1c0.4,0.3,0.7,0.7,0.9,1c0.3,0.4,0.5,0.8,0.9,1c-0.2-0.4-0.5-0.8-0.7-1.2c-0.3-0.4-0.6-0.8-0.9-1.2
			c-0.7-0.8-1.4-1.7-2.3-2.6c-0.3-0.3-0.3,0-0.6-0.4c0-0.5-0.7-0.9-1-1.2c-1.7-1.8-3.9-4.1-5.3-5c-0.3-0.2-0.7-0.6-0.9-0.7
			c-0.3-0.2-0.8-0.1-1.2-0.7c-0.3-0.1-0.3,0.3-0.6,0c-0.7-0.4-0.9-0.8-1.3-0.9c0.2,0.2,0.4,0.3,0.2,0.4c-0.6-0.5-0.9-0.9-1.3-1.3
			c-1-0.4-1.5-0.8-2.2-1.6c-0.1,0.1-0.2,0.1-0.5-0.1s0-0.3-0.4-0.5c-0.1,0.4-0.7-0.4-0.8-0.4c0,0-0.6-0.2-0.7-0.2
			c-0.4-0.2-0.5-0.5-0.8-0.5s0.4,0.6-0.2,0.3c-0.2-0.1-0.3-0.1-0.4-0.2c-0.3-0.5,0.8,0,0.1-0.6c0.4,0.3,0.7,0.4,0.9,0.3
			c-0.4-0.2-0.9-0.7-1.3-0.8c-0.2-0.1,0,0.2-0.3,0c-0.4-0.2-0.6-0.5-0.7-0.5c-0.3-0.2-0.7-0.3-1-0.5c-0.8-0.5-1.7-1.2-2.6-1.5
			c0.2,0.1,0.5,0.4,0.5,0.3c-0.6-0.1-1-0.6-1.8-1c-0.2-0.1-0.3,0-0.4-0.1c-0.3-0.1-0.2-0.3-0.6-0.4c-0.3-0.1-0.7,0-1-0.1
			c0,0-0.3-0.3-0.5-0.4c-0.3-0.2-0.7-0.3-1-0.5c-0.1-0.1-1-0.5-1-0.5c-0.3-0.2-0.2-0.6-0.6-0.3c0.1,0,0.2,0.2,0,0.1
			c-0.5-0.4-1.4-0.3-1.9-0.8c0.3,0.1,0.7,0.3,0.7,0.1c-0.6-0.1-1.5-0.5-1.8-0.4c-1-0.5-2.2-0.9-2.6-0.7c0.1-0.2-0.1-0.3-0.6-0.5
			c-1.2-0.2-3.1-0.8-4.6-1.2c0.1-0.2-0.2-0.3-0.6-0.3c-0.9,0.2,0.9,0.6,0.3,0.6c-0.8-0.2-0.7-0.5-1.2-0.7c-1.2-0.2-2.3-0.3-3.1-0.7
			c0.1,0.4-0.8,0.1-1.2,0.2c-0.4-0.3-1.9-0.6-2.4-0.5c0.1,0,0.3,0.1,0,0.1c-0.5-0.1-1.3-0.6-2-0.4C103.7,3.6,104,3.8,103.7,3.8z
			 M77.6,4.8l0.1,0.6c-0.7,0.2-0.9-0.1-1-0.4L77.6,4.8z M76.4,5.8c1.1-0.3,1.1,0,1.4,0.3l-0.7,0.1C77.4,5.7,76.1,6.3,76.4,5.8z
			 M93,4.5c-0.1-0.1-0.7-0.1-0.4-0.4c1.2-0.2,0.7,0.3,1.3,0.3C94.1,4.7,92.9,4.7,93,4.5z M21.9,60.3c0.1-0.2,0.2-0.4,0.4-0.8
			c0.2,0,0.2,0.2,0.3,0.3C22.4,60.5,22.1,60.5,21.9,60.3z M22.2,62c-0.1-0.2,0.2-0.9-0.2-0.8c0.4-1.1,0.3-0.1,0.6,0
			C22.5,61.6,22.3,61.6,22.2,62z M21.3,67.3c-0.1,0.4,0.3,0.3,0.1,0.9c-0.4,0-0.2-0.9-0.2-1.4l0.6,0.2
			C21.7,67.4,21.5,67.4,21.3,67.3z M25.3,51.5c0.2,0,0,0.5,0.1,0.5c0.2,0.1,0.4-0.5,0.5-0.2c-0.4,1-0.7,0.6-1,1.1
			c0-0.4,0.5-0.7-0.1-0.8C25.1,51.5,25.2,51.5,25.3,51.5z M26,53.8c0.2-0.2,0,0.8-0.3,1.3c0-0.5-0.1-0.5-0.5,0.2
			c-0.1-0.2,0-0.5,0.2-0.9C25.6,54.3,25.8,54.4,26,53.8z M25,53.3c-0.1,0.2,0,0.2,0,0.2c-0.2,0.5-0.4,0.6-0.6,0.4
			C24.6,53.4,24.8,53.1,25,53.3z M24.1,56.4c0.2,0.1,0.1,0.5,0.4,0.4l-0.2,0.6C24.2,57.1,23.8,57.1,24.1,56.4z M23.2,56.2
			c-0.1,0.9,0.1,0.7,0.2,1.3C22.9,58.3,22.9,56.9,23.2,56.2z M23.3,61.7c-0.1-0.1,0-0.4-0.1-0.5c0.1-0.3,0.3-0.4,0.5-0.3
			C23.6,61.4,23.4,61.5,23.3,61.7z M24.2,59.2c-0.3-0.2-0.6,0.1-0.8,0.6c-0.1,0.4,0.3,0.1,0.5,0c0.1-0.1,0.2-0.5,0.3-0.3
			c-0.4,0.9-0.8,1.2-1.2,1.1c0-0.3-0.1-0.5,0-0.9c0.2-0.8,0.5-0.6,0.8-1.1c0.1,0.1-0.1,0.4,0,0.5c0.1,0,0.3-0.3,0.4-0.3
			c0.4-0.9,0.4-1.6,0.8-2.2C24.9,57.3,24.6,58.2,24.2,59.2z M26.6,54.1c-0.2,0.6-1,2.5-1.5,2.1c0.3-0.7,0.5-1.1,0.7-0.6
			C26.1,55.1,26.3,53.8,26.6,54.1z M27.8,49.7c-0.4,1-0.6,1.8-1.1,2.8c-0.1-0.5-0.4-0.1-0.8,0.8l-0.3-0.2c0.4-0.8,0.9-1.3,1.4-1.9
			c0.1-0.4,0-0.6,0.4-1.2c-0.8,0.3,0.7-1.1,0.1-1.2C28.4,47.8,27.3,49.7,27.8,49.7z M27,47.8c-0.1,0.3-0.1,0.9,0.1,0.6
			c-0.2,0.3-0.5,1.1,0.1,0.8c-0.5,0.9-0.1,1.1-0.3,1.7c-0.3,0.5,0-0.4,0-0.5c-0.2-0.1-0.5,0.5-0.7,0.3c0.2-0.3,0.3-0.3,0.5-0.7
			c0.2-0.7-0.4-0.1,0-1.2c-0.3,0.2-0.9,0.8-0.9,1.4c0.3-0.2,0.2-0.5,0.6-0.9c0,0.3-0.4,1-0.5,1.4c-0.2,0.1-0.3,0.1-0.5,0
			c0.5-1.1,1-2,1.5-2.6c0.2-0.7,0.4-1.3,0.7-2.1c0.5,0-0.1,0.8-0.4,1.3c0.2,0.1,0.5-0.5,0.8-1l0.4,0.2C27.9,46.6,27.4,48.1,27,47.8z
			 M26.6,58.1c-0.1-0.2,0-0.7,0.3-1.2l0.3,0.1C26.8,57.6,26.7,57.4,26.6,58.1z M28.3,53.5c0.1-0.9,0.9-1.4,1.3-2.3
			c0.1,0.5-0.2,0.6-0.6,1.3C29,52.9,28.6,53.9,28.3,53.5z M29,54.8c-0.4,0,0.3-1.2,0.5-1.3C29.8,53.5,29.3,54.7,29,54.8z M34.8,37.4
			c-0.4,0.7-0.5,0.1-0.9,0.9C33.5,38.7,34.8,37,34.8,37.4z M29.7,43.1c0.1,0.1-0.1,0.6-0.4,1C29.2,44,29.1,44,29,44.2
			C28.9,43.9,29.5,43.5,29.7,43.1z M29.3,45.2c0.2-0.3-0.4,0.1,0.1-0.7c0.2,0,0,0.4,0.3,0.4c-0.3,0.2-0.4,0.8-0.9,1.5
			C28.6,46.2,28.9,45.7,29.3,45.2z M29.5,46.1c-0.3-0.1,0.5-1.4,0.6-0.8C29.9,45.7,29.7,45.5,29.5,46.1z M32.2,48.5
			c-0.1,0.7-0.9,1.3-1.3,2.3C30.8,50,31.7,49.3,32.2,48.5z M30.9,48.7c-0.2,0.6-0.5,1.9-1.1,2C30.4,50.2,30.3,49.1,30.9,48.7z
			 M31.3,41.4C31,42,31,41.4,30.7,42c-0.1,0.3,0.1,0.1,0.3-0.1c0.1,0.3-0.4,0.4-0.5,0.7c0.1,0.2-0.7,1.6-0.3,0.6
			c0.1-0.2,0-0.3-0.1-0.3c0.5-0.9,0.6-1.5,0.9-2.2c0.3-0.5,0.5-0.4,0.9-0.9c0.2,0.4-0.4,0.5-0.7,1.1c0.1,0.4,0.5-0.5,0.5-0.1
			C31.1,41.1,31.4,41.1,31.3,41.4z M31.8,42.3c-0.2-0.2-0.4,0.2-0.3-0.2c0.3-0.4,0.5-0.4,0.8-1c-0.1-0.4-0.5,0.5-0.5,0.1
			c0.3-0.4,0.6-0.9,0.8-1c0.1,0.1-0.5,1.1,0.1,0.3C32.8,41,32.1,41.8,31.8,42.3z M32.6,39.2L32,40.1c-0.5,0.5,0.2-0.5,0.4-0.8
			c0.3-0.4,0.7-0.7,1.1-1.3c0.3,0-0.2,0.5-0.4,0.8c0.1,0.2,0.3,0.2,0.6-0.1C33.6,39.4,32.9,39.2,32.6,39.2z M33.2,40.5
			c0-0.2,0.2-0.5,0.4-0.7s0.5-0.4,0.6-0.4C34.6,39,33.4,40.3,33.2,40.5z M34,40.8l-0.3-0.2c0.2-0.4,0.3-0.1,0.5-0.4
			c0.5-0.5-0.1-0.3,0.4-0.8c-0.1,0.5,0.3-0.1,0.5,0.1C34.6,40,34.3,40.1,34,40.8z M36,37.3c-0.1,0.5-1.1,1.4-1.2,1.2
			C35.2,37.8,35.6,37.7,36,37.3z M35.8,34.8c-0.2-0.3-0.8,1-1,0.6c0.6-0.6,1.3-1.6,1.8-1.9c0,0.4-0.4,0.8-0.7,0.8
			c-0.3,0.3,0.2,0.3,0.2,0.5C35.8,35.2,35.6,35.1,35.8,34.8z M37.2,34.1c0.1,0.4-0.7,0.7-1,0.8C36.2,34.5,36.8,34.5,37.2,34.1z
			 M36,36.8c-0.1-0.4,0.9-1.1,1.2-1.4C37.5,35.6,36.4,36.4,36,36.8z M37,33.3c-0.2-0.1-0.1-0.3-0.1-0.4c0.3-0.2,0.6-0.4,0.7-0.2
			C37.3,32.9,37.1,33.1,37,33.3z M42.6,27.3c0.3-0.2,0.6-0.4,0.5-0.2c-0.5,0.5-0.6,0.4-1,0.8C42.1,27.8,42.4,27.5,42.6,27.3z
			 M42.9,28.7l-0.1-0.1c-0.1-0.1-0.4,0.2-0.3,0.3c-0.3,0.3-0.2-0.3,0.1-0.5c0.1,0.3,0.6-0.3,0.7,0.1c0.3-0.6,0.1-0.3,0.8-0.6
			c0.3-0.1,0.6-0.6,0.6-0.3C44,28.1,43.6,28.7,42.9,28.7c-0.3,0.4-0.6,1-1,1.1C41.8,29.6,42.6,29.1,42.9,28.7z M38.4,34.9
			c0-0.3-0.4-0.4,0.2-1c0.1,0.1-0.1,0.2-0.2,0.4c0.1,0.1,0.5-0.3,0.5-0.1L38.4,34.9z M39.4,31.2c-0.2,0.3-0.2,0.4-0.5,0.7
			C38.6,31.7,40.8,29.6,39.4,31.2z M39.1,33.9c0.1-0.4,0.1-1,0.7-1.3c-0.1,0.3-0.5,0.7-0.3,0.9c0.5-0.6,0.5-0.9,1.3-1.7
			c0.2,0.1-0.1,0.4,0.2,0.5C40.3,32.5,39.9,33.2,39.1,33.9z M40,31.2c-0.3-0.2,0.7-0.8,0.1-0.9c-0.2,0.2-0.8,0.7-1.4,1.3
			c-0.2-0.6,1.6-2,1.8-1.5c0.3-0.3,0.2-0.4,0.6-0.7c-0.1-0.5-0.9,0.8-1,0.2c0.5-0.3,1-0.8,1.6-1.4c0.6-0.4-0.6,0.6-0.5,0.7l0.3,0.3
			C40.6,30.1,40.6,30.5,40,31.2z M44.6,28.8c-0.6,0.6-0.7,0.4-1.2,0.9c-0.3,0.2-0.2,0.3-0.2,0.4c-0.7,0.5-0.9,0.5-1.4,1.2
			c-0.4-0.2-0.2-0.6-0.5-0.8c0.5-0.3,0.6,0.1,1.3-0.7c0.2-0.2,0-0.2-0.1-0.1c0-0.1,0.3-0.4,0.5-0.7c0.4-0.1,0,0.2,0.3,0.4
			c0.3-0.2,0.3-0.5,0.5-0.4c0.3-0.4-0.3,0.1,0-0.4c0.3-0.3,0.4,0,0.8-0.4C45,28.3,44.6,28.6,44.6,28.8z M44.5,26.3
			c0.2,0,0.6-0.3,0.9-0.6c0.1,0.2-1.2,0.9-0.6,1c-0.5,0.4-0.2,0-0.3,0l-0.4,0.2l0.2-0.4c-0.1-0.1-0.5,0.3-0.5,0.1
			c0.8-0.7,0.6-1,1.6-1.8c0.2,0.1,0.2,0.3,0.1,0.5L44.5,26.3z M45.7,26.4c0.3-0.2,0.6-0.5,0.9-0.8c0.3-0.2,0.6-0.4,0.8-0.5
			C47,25.7,46.1,26.7,45.7,26.4z M47.7,24.4c0.1-0.1,0.1-0.1,0-0.2c-0.2-0.1-0.9,0.9-1,0.4l0.8-0.7c0-0.5-0.8,0.6-0.7,0.1
			c0.5-0.5,0.3-0.3,0.8-0.7c0,0.1-0.1,0.2-0.1,0.3c0.6-0.3,1.7-1.4,2.1-1.1c-0.4,0.3-0.8,0.6-1.1,0.7c-0.2,0.2,0.3,0.2-0.5,0.8
			c0.1,0.2,0.7-0.5,1.1-0.7c0.1,0.2-0.4,0.6-0.6,0.7c-0.4,0.3-0.4,0.1-0.6,0.2C47.8,24.3,47.7,24.3,47.7,24.4
			C47.6,24.5,47.5,24.5,47.7,24.4z M48.2,24.9c-0.1-0.1-0.1-0.4-0.4-0.2c0.5-0.5,1.4-0.9,2.1-1.5c0.3-0.2-0.4-0.1,0.6-0.6l0.2,0.3
			C49.5,23.8,48.9,24.1,48.2,24.9z M54.5,20.2c0.1-0.2,0.1-0.4,0.6-0.7c0.1,0,0.3,0,0.3,0.1C55.2,19.9,54.8,20.2,54.5,20.2z
			 M55.9,18.5c-0.1-0.2,0.8-0.5,1.1-0.7C57.1,18,56.2,18.5,55.9,18.5z M60.9,15c0.3,0.3-0.8,0.8-0.8,0.4
			C60.6,15.1,60.4,15.1,60.9,15z M59.5,16.6c0.4-0.5,1.5-0.7,1.9-0.9C61.2,16.1,60,16.4,59.5,16.6z M64.8,15.7l-0.1-0.3
			c0.6-0.4,0.5-0.1,0.8-0.2C65.5,15.4,65.1,15.5,64.8,15.7z M66.3,14.8c0,0.1,0.1,0.1,0.2,0c0,0.2-0.6,0.3-0.8,0.3
			c-0.3-0.4,0.5-0.8,1.2-0.9C66.9,14.5,66.9,14.7,66.3,14.8z M67.1,14.7c0.1-0.4,1.1-0.5,1.5-0.7s1.1-0.9,1.2-0.4
			C69.3,14,68,14.3,67.1,14.7z M70,12.6c-0.1-0.2,0.9-0.5,1.2-0.5C71.2,12.3,70.3,12.4,70,12.6z M59.7,19c0.7-0.5,0.9-0.3,1.6-0.6
			C60.8,18.9,59.9,19.4,59.7,19z M62.2,18.4c0.4-0.4,0.6-0.6-0.2-0.3c0.2-0.4,0.8-0.1,1.3-0.6C63.3,17.8,62.7,18.1,62.2,18.4z
			 M72.4,14.3c-0.2,0.1-0.4,0.2-0.8,0.3c0-0.1,0-0.3-0.3-0.2C71.5,14.1,72.5,14,72.4,14.3z M65,17.1c0.7-0.3,0.7,0.1,1,0.2
			C65.5,17.4,65,17.5,65,17.1z M65.5,16.4c1.3-0.5-0.3,0.6,0.8,0.3C65.9,17,65.4,16.8,65.5,16.4z M71.1,15.6c-0.4-0.3,1-0.3,0.9-0.6
			c-0.4-0.1-1.4,0.4-1.7,0.6c-0.4,0.1-1.2-0.2-1.6,0.3c0.8-0.2,1.1,0,2-0.4c0,0.3-0.7,0.4-1.1,0.5c-0.6,0.2-1.1,0.5-1.7,0.6
			c-0.2,0,0.4-0.3,0.3-0.2c0-0.1-0.6,0.1-0.8,0.2c-0.5,0.3,0.5,0,0.3,0.3c-0.3,0.1-0.5,0.2-0.8,0.3c0.1-0.3,0.2-0.7,0.3-1
			c-0.3-0.2-0.3,0-0.8,0.2c-0.4-0.2,0.5-0.4,0.2-0.6c0.4-0.1,0.5,0,0.3,0.2c0.2,0.1,0.7-0.1,1.1-0.1c0,0.1-0.3,0.2-0.5,0.3
			c0.3,0.2,0.6-0.3,1-0.4c0.2-0.2-0.4-0.1-0.4,0c0.1-0.3,1.4-0.8,1.7-1.3c0.4,0-0.6,0.7-1.2,0.9c0.5-0.1,0.8,0.1,1.3-0.1
			c0.9-0.3,2-0.8,2.9-1c0.2,0.2-0.3,0.2-0.3,0.4c0,0.1,0.7,0.1,0.6-0.1c0.3-0.1,0.2,0.2,0.3,0.3C72.3,15.3,72,15.2,71.1,15.6z
			 M74.4,12.5l-1.1,0.3l-1,0.3c0.1-0.3,0.1-0.2-0.1-0.4c0.6-0.1,0.7-0.4,1.4-0.5c0.1,0.1,0.7-0.1,0.5,0.3c0.5-0.1,1.2-0.3,1.4-0.5
			c-0.1-0.1-0.2-0.1-0.4-0.1c0.6-0.5,1.4-0.2,1.5,0.1L74.4,12.5z M78.9,11.1c-0.3,0.3-1,0.5-1.8,0.7c0.4-0.3-0.3-0.5-1.1-0.2
			c0-0.2,0.4-0.3,0.8-0.3c0.5,0,1-0.1,1.4-0.3l0.1,0.3c0.6-0.1,1.3-0.7,1.6-0.4c0.3-0.1,0.1-0.3,0.1-0.4c0.1,0,0.3-0.1,0.4-0.1
			c0,0.1,0.3,0,0.4,0c0,0.2-0.7,0.2-0.6,0.4c0.5-0.2,1.1-0.3,1.8-0.4C81.9,11.1,79.9,10.8,78.9,11.1z M85.7,12.8
			c0.2-0.3,0.4-0.1,1-0.3v0.3C86.1,12.8,86.2,12.9,85.7,12.8z M86.6,10.7c0.5-0.1,1-0.1,1.2,0C87.8,10.8,86.3,11,86.6,10.7z
			 M85.5,10.2c-0.8,0.1-1.2-0.1-1.9-0.1c0.8,0.1-0.1,0.2-0.8,0.3c0-0.3,0.2-0.5,0.6-0.7c0.8-0.1,1.2,0.1,1.7,0.3
			c0.6-0.2-0.3-0.2,0.2-0.4c0.7-0.1,1.3-0.3,2.3-0.3c0.6,0.1-0.9,0.6,0.4,0.4C87.3,10.1,85.9,9.8,85.5,10.2z M89.2,9.7
			c-0.6,0.1-0.5-0.2-1.1-0.2c0.1-0.1,0.2-0.2,0-0.2C88.6,9,89.6,9.6,89.2,9.7z M150.5,40.2c-0.3-0.4-0.2-0.6-0.7-1
			C150.1,39.1,150.7,40.1,150.5,40.2z M149,38.1c-0.5-0.2-0.6-0.9-1.1-1.1C148.1,36.7,148.9,37.9,149,38.1z M133.6,23.8
			c0.2,0.1,0.4,0.3,0.7,0.4c-0.2,0-0.4,0.2-0.6,0.1C133.3,24.1,133.4,24,133.6,23.8z M127.8,18.5c-0.6,0,0.2,0.3,0,0.5
			c-1-0.3-0.4-0.6-1.1-0.9C126.8,18.1,127.3,18.2,127.8,18.5z M123.5,18.5c0,0.3-0.4,0-0.5,0.2c0.1,0.2,0.5,0.4,0.3,0.7
			c-0.3-0.2,0-0.3-0.6-0.5C122.9,18.5,122.4,18,123.5,18.5z M113.3,15c-0.2,0.1-0.7,0-1.2-0.1C112.2,14.5,112.5,14.9,113.3,15z
			 M108.4,12.1l-1-0.2C107.3,11.6,108.7,11.8,108.4,12.1z M106.7,13.1c-0.1,0.2-0.7,0.1-1.2,0C105.4,12.7,106.3,13.1,106.7,13.1z
			 M103.6,12.1c0.4,0.2-0.6,0.4-1.3,0.2C102.1,11.8,103.5,12.2,103.6,12.1z M99.3,11c-0.8,0-1.3-0.2-1.4-0.5
			C98.6,10.6,99.7,10.6,99.3,11z M95.3,12.4c0.3,0.1,0.7,0,0.6,0.2c-0.7-0.3-1.4-0.1-2-0.3C94.1,12,94.9,12.3,95.3,12.4z M90.7,9.7
			c0.2-0.1,0.5-0.6,0-0.6c0.4-0.3,1.3,0,1.9,0C92.1,9.4,91.6,9.6,90.7,9.7z M91.9,9.7c0.3-0.1,0.4-0.4,1.3-0.3
			c0.2-0.3-0.6-0.2-0.4-0.5c0.5-0.1,0.8,0,0.6,0.3c0.4,0,0.6-0.1,0.8-0.1C94.7,9.2,96,9,95.9,9.3C94.8,9.1,93.2,9.6,91.9,9.7z
			 M105.7,10.1c0.6,0.2,0.4,0.1,1,0.2c-0.1,0.1,0,0.2,0.2,0.2C107,10.5,105.4,10.3,105.7,10.1z M110.7,11.3
			c-0.4-0.1-0.5-0.2-0.8-0.3c0.1-0.1,0.4-0.1,0.9,0L110.7,11.3z M111.4,11.3c-0.3-0.1,0-0.2,0-0.2c-0.1-0.2-0.6-0.2-0.3-0.5
			c0.9,0.2,0.9,0.5,1.1,0.8L111.4,11.3z M125.4,15.9c-0.6-0.2-0.5-0.4-1.1-0.7c0.2-0.1,0.7,0.1,1.2,0.3L125.4,15.9z M155,29.5
			c-0.2-0.1-0.3-0.1-0.1,0.1c-0.6-0.3-0.6-0.6-1.3-1.3C154.2,28.2,154.3,29,155,29.5z M152.9,27.4c0.5,0.5,0.2,0.7,0.5,1.1
			c-0.1,0-0.4-0.3-0.3-0.3C153.1,28,152.5,27.5,152.9,27.4z M152.1,26.6c-0.2,0.2-1-0.5-1.1-0.8C151.5,25.7,151.6,26.2,152.1,26.6z
			 M148.1,22.9c-0.5,0-0.5-0.2-1.2-0.7C147.2,22.1,147.9,22.4,148.1,22.9z M146.9,26c-0.3-0.1-0.9-0.5-1.3-0.8
			C146.1,25.3,146.4,25.3,146.9,26z M134,15.6c0.2,0.2,0.2,0.4,0.2,0.5c-0.3,0-0.7-0.3-1.2-0.6C133.3,15.6,134,16.1,134,15.6z
			 M133.5,15.6c-0.4,0-1.1-0.9-0.9-0.3c-0.3,0.1-0.6-0.4-0.7-0.5C132.2,14.7,133.7,15,133.5,15.6z M125.6,10
			c-0.1,0.2-1.2-0.3-1.5-0.5C124.7,9.4,125,10,125.6,10z M115.6,6.2c0.4,0.1,0.7,0.2,0.7,0c0.4,0.2,0.7,0.4,0.5,0.6
			c-0.4-0.1-0.6-0.1-0.7,0C115.7,6.6,115.4,6.4,115.6,6.2z M114.8,6.6c-0.2-0.2-0.4-0.5-0.5-0.7C115.3,6,114.8,6.3,114.8,6.6z
			 M115.7,7.9c0.4,0.1,0.3-0.1,0.7,0.1c-0.3,0.3-1.8-0.3-2.7-0.3C113.8,7.2,115.1,7.8,115.7,7.9z M106.5,5.8
			c-0.5-0.1-0.4-0.3-1.1-0.3c0.1-0.2,0.7-0.2,1.2-0.2L106.5,5.8z M108.5,4.7c0.3-0.2,0.6,0.3,0.4,0.4c-0.3,0-0.6,0-1.1-0.1
			C108,5,109,4.9,108.5,4.7z M106.1,4.3c0.1,0.4-1.2,0-1.8,0C104.2,3.8,105.5,4.3,106.1,4.3z M107.6,4.7c0,0.2-0.7,0-0.7,0.2
			c-0.8-0.3-2.6-0.1-2.6-0.6C105.8,4.7,106.1,4.5,107.6,4.7z"/>
		<path class="st4" d="M87.9,4c1,0,0.3-0.4,0.7-0.4l1.6-0.1c0-0.1,0-0.2,0.2-0.2c0.3,0.4-0.7,0.3-0.9,0.5c0.7-0.1,1.6,0.2,1.8-0.2
			c-0.9,0-0.2-0.2,0-0.3c-0.5-0.3-1.5,0-1.4-0.4C89,3,88.5,3.2,89.5,3.3C88.1,3.5,87.9,3,87,3.4C88.8,3.3,87.4,3.8,87.9,4z"/>
		<path class="st4" d="M101.8,5.8c-0.8-0.1-1.9-0.2-2.4-0.2c-1.2-0.1-2.3-0.2-3.1,0c1.6,0,4.2,0.3,5.7,0.3
			C102.9,6,102.5,5.9,101.8,5.8z"/>
		<path class="st4" d="M91.5,3.4c0.1,0,0.4,0,0.4,0.1c0.5,0.2,0.8,0,1.1,0c0.1,0,0.1,0.1,0.4,0.1c0.4,0,0.6-0.2,0.9-0.2v0.2
			c0.3,0.1,1.1-0.1,1.3,0c0.1,0,0.7-0.4,0.9-0.1c-0.1,0.2-1,0-0.9,0.3c0.6,0.2,1.7-0.2,1.8-0.5C98,3.5,99.5,4,100,3.6
			c-0.5-0.1-1.4-0.2-1-0.6c-0.8,0-1.3,0.2-2.5,0.1c0-0.1,0.2-0.1,0.2-0.2C95.9,2.8,96,3.1,95.3,3c-1.5-0.2-3.2-0.2-4.5,0
			C92,2.9,91.2,3.3,91.5,3.4z M93.5,3c0,0.7-0.8,0.1-1.8,0.2C91.8,3,92.8,3.1,93.5,3z"/>
		<path class="st4" d="M71.5,6.8c0.6-0.3,1.2-0.2,1.5-0.3c0.1-0.1-0.1-0.2,0.2-0.2c0.2,0,0.5,0.3,0.7-0.1c-0.8,0.1-0.1-0.1-0.3-0.4
			c0.4-0.1,1.1-0.2,0.8-0.4C73.7,5.5,73.3,6,73.1,6c-0.3,0.1-0.3-0.1-0.7,0.1c0,0,0,0.2-0.2,0.2c-0.4,0.2-0.9,0.1-1.1,0.4
			C71.4,6.7,71.5,6.7,71.5,6.8z"/>
		<path class="st4" d="M40.5,26.6c-2,2.1-3.6,3.1-4.8,4.9c0.7-0.7,1.7-1.8,2.6-2.7C39,28.2,40.9,26.4,40.5,26.6z"/>
		<path class="st4" d="M31.3,36.8c-0.4-0.1-0.8,0.8-1.2,1.3c-0.5,0.7-1.7,1.9-1.5,2.5c0.3-0.5,0.7-1.2,1.2-1.8
			C30.3,38,30.8,37.3,31.3,36.8z"/>
		<path class="st4" d="M29.8,48.2c-0.1-0.1-0.1-0.2-0.1-0.3c-0.4,0.4-0.3,1.4-1,1.6c-0.3,0.6,0,0.7-0.5,1.4c0.4,0.3,0.7-1,0.8-1.4
			C29.2,49.5,29.5,48.6,29.8,48.2z"/>
		<path class="st4" d="M55.1,14.1c-0.7,0.2,0.6-0.5,0.4-0.7c-0.3,0.2-0.8,0-0.8,0.4c0.1-0.1,0.3-0.1,0,0.1c-0.8,0.3-1.2,0.8-1.9,0.8
			c-0.1,0.4,0.2,0.2,0,0.4c-0.2,0.1-0.8,0.6-1,0.6l-0.1-0.2c-0.5,0.3-1.1,0.7-1.8,1c-0.1,0.5,0.9-0.5,0.8,0c1-0.7,1.8-1,3.1-1.9
			c-0.3-0.1,0.3-0.4,0.5-0.6C54,14.5,54.8,14.5,55.1,14.1z"/>
		<path class="st4" d="M47.5,21.1c0.8-0.6,1.6-1.1,2.8-1.9c0.2-0.2,0.4-0.3,0.3-0.4c-0.7,0.5-1.6,1.1-2.5,1.7s-1.7,1.3-2.3,1.8
			c-0.4,0.3-1.6,1.2-1,0.9C46,22.3,46.8,21.7,47.5,21.1z"/>
		<path class="st4" d="M175.4,74.5c-0.1-0.8-0.1-1.3-0.1-1.8c-0.1,0-0.2,0-0.2-0.2c0.1-0.8-0.3-1.5-0.4-2.2
			c-0.1-0.5-0.1-1.1-0.2-1.6c-0.1-0.5-0.3-0.9-0.4-1.3c-0.2-0.7-0.2-1.4-0.4-2.2c-0.3-1.4-0.9-2.8-1.2-4c-0.6,0.7-1.2,1.5-1.8,2.2
			c-1,1.4-1.9,2.8-2.8,4.2c0.1,0.3,0.3,0.7,0.1,1c-0.2-0.2-0.2-0.6-0.2-0.9c-0.1,0.1-0.1,0.2-0.2,0.3c0.1,0.3,0.2,0.7,0.2,1
			c0.2,0,0.5-0.2,0.6,0.3c0,0.5,0,1,0,1.5c-0.2,0.1-0.2-0.8-0.4-0.8c0.1,0.9,0.3,1.9,0.6,2.2c-0.1,0.1-0.1,0.3-0.1,0.6
			c0.5-0.4,0.4,1.1,0.7,1.2c0-0.5,0-1.8,0.4-1.1c-0.2,0.8-0.4,1.8-0.6,2.6c-0.4-0.5,0.3-1.3-0.3-1.6c0.1,0.8,0.1,1.1,0,1.5
			c0.2,0.1,0.2,0.7,0.2,1.3c0,0.6,0,1.2,0.2,1.6c0.3,0.4,0.1-0.9,0.3-0.2c0,0.6-0.1,1.1-0.2,1.5c0.1,0.4,0.2,0.6,0.2,1
			c0.2,0.9-0.1,0.3-0.1,1c-0.1,0.8,0.3,0.7,0.2,1.7c-0.2-0.5-0.2,0.3-0.5,0.4c-0.1,0.5,0.4,0.9,0.1,1.3c-0.3-0.6,0-1.6-0.2-2.1
			c0,0.2-0.2,0.9-0.3,0.4c0.2,0,0-0.9,0.2-1c-0.2-0.2-0.3,0.9-0.5,0.2c-0.1-0.8,0.3-0.7,0.2-1.6c0-0.3-0.2-0.2-0.2-0.6
			c0.1,0,0.2,0.3,0.2-0.2c0-1.1-0.6-0.5-0.7-1.4c0.3,0,0.2-0.3,0.4,0c-0.2-0.7,0-1.4-0.2-1.8c-0.2,0.3-0.6-1.2-1.1-1.2
			c-0.2,0.5,0.2,0.8,0.2,1.4c-0.3,0.1-0.2,1-0.5,1c0.1-0.5,0.2-0.4,0-1c-0.4-0.1,0,1-0.4,0.8l-0.1-1c0.3,0.2,0.3-0.3,0.2-0.8
			c-0.3,0.1-0.2,1-0.3,1.4c0.1,0,0.1,0.3,0.1,0.6c0.4-0.2,0.5,0.6,0.7,1c-0.3,0.1-0.7,0.7-0.4,1.4c-0.1-0.7,0.3-0.8,0.4-0.2
			c-0.1,0.3-0.3,0.3-0.5,0.6c0.2,0.2,0.2,0.7,0.4,1c0.4-0.1,0.4-1,0.7-1.2c0.2,0.4,0.1,1.2-0.3,1c0,0.5,0.2,0.4,0.1,1
			c-0.2,0-0.3-0.1-0.4-0.2c-0.1,0.4,0.3,0.7,0,0.8c0.1-0.7-0.2-0.3-0.3-0.2c0-0.3,0-0.7-0.2-0.6c-0.1,1,0.2,1.5,0.2,1.8
			c0.1,0.7-0.1,1.1,0.2,1.2c-0.4-0.1-0.4,1.8-0.3,2.2c0-0.2,0-0.6,0.1-0.6c0.2,0.5-0.1,0.8-0.2,1.2c-0.2,1.8-0.2,4.1-0.5,6.2
			c0,0.3-0.2,0.7-0.3,1c-0.1,0.6-0.2,1.2-0.2,1.8c-0.1,0.5-0.1,1,0,1.1c-0.5,1-0.5,2.6-0.6,3.2c-0.1,0.4-0.3,0.7-0.4,1.1
			c-0.1,0.4,0,0.5-0.1,0.8s-0.2,0.2-0.2,0.6c0,0.1,0.1,0.5,0,0.6c-0.1,0.3-0.3,0.8-0.5,1.1c-0.1,0.2-0.4,0.5-0.5,0.9
			c-0.2,0.4-0.2,1-0.4,1.6c0,0.1-0.1,0.1-0.1,0.2c0.2,1.6,0.5,3.2,1,4.7c0.1-0.4,0.3-0.9,0.5-1.3c0.4-1,0.8-1.9,0.9-1.3
			c-0.3,0.7-0.2,0.1-0.5,0.9c-0.1,0.5-0.4,1.1-0.4,1.4c0.3-0.1,0.5-0.9,0.9-1.7c0.3,0.4-0.2,0.7-0.5,1.2c0,0.3,0.2,0.4,0.2,0.8
			c-0.2,0.3-0.2,0-0.3-0.1c-0.2,0.1-0.4,0.5-0.6,1c0.6,1.9,1.5,3.6,2.9,5c0.5-0.7,1.1-1.2,1.2-2.1c-0.2,0.2-0.6,0.7-0.6,0.2
			c0.4-0.1,1-1.5,1.2-2.4c0.2,0,0.1,0.3,0.2,0.4c0.2-0.2,0.4-0.6,0.6-1c0.2-0.4,0.3-0.8,0.1-0.6c-0.1,0.3,0,0.5-0.3,0.9
			c-0.1-0.1-0.3,0.1-0.4,0c0.1-0.2,0-0.3,0.1-0.4c0.2-0.6,0.5-0.3,0.7-0.9c-0.1-0.7-0.8,1-1.2,1.4c0.3-0.8,0.6-1.1,0.9-2
			c0.2,0.4,0.8-0.9,0.7-1.1l-0.2,0.6c0-0.6-0.5,0.2-0.3-0.6c0.1,0.1,0.3-0.5,0.5-0.8c0.5-1,0.2-0.6,0.4-1.3c0.2,0,0.3,0,0.5-0.3
			c-0.1-0.3-0.2-0.5,0.1-1.2c0.3,0.1,0.5-0.2,0.7-0.7c-0.4,0-0.8,0.6-1.1,0.8c0.1-0.2,0-0.3,0-0.5c0.3-0.5,0.8-0.3,1-1.8
			c0.1,0.1,0.1,0.4,0.1,0.5c0.2-1.1,0.9-2.2,0.5-2.6c-0.2,0.6-0.1,1.4-0.5,1.5c0.1-0.4,0.5-1.3,0.1-1.1c-0.1,0-0.2,0.6-0.4,0.6
			c-0.1-0.1-0.1-0.3,0-0.7c0.3-0.8,0.3,0.1,0.6-0.3c0.2-0.7,0.4-1.8,0.6-2.1c-0.1-0.3-0.4,0.6-0.4-0.1c0.4-0.3,0.1-0.6,0.3-1.3
			c0.3-0.2,0.1,1.1,0.4,0.1c0.2-1-0.3-0.4-0.4-0.8c-0.1,0.4-0.2,0.9-0.4,1c-0.1-0.3,0.1-1.3,0.3-1.5c0.2,0.8,0.5-0.5,0.8-0.5
			c-0.1,0.3-0.1,0.8,0,0.5c0.2-0.7-0.2-0.6,0-1.4c0.4,0.2,0.5-1.2,0.7-1.9c-0.2-0.4-0.2-2.1,0.1-2.9c0.3-0.1-0.1,1,0.1,1.2
			c0.1-0.8,0.1-1.3,0.1-1.8c-0.2,0.2-0.5,0-0.6,0.4c0.1,0,0,0.6-0.1,0.7c-0.5-0.5,0.2-1,0.4-1.5c0.1-0.5-0.2-0.5,0-1.1
			c0.1,0.1,0.2,0.4,0.2-0.2c-0.3-0.2-0.4,0.2-0.6,0.2c0-0.3,0-0.5,0-0.7c0.1-0.4,0.3-0.3,0.4-0.6c-0.2-0.3-0.3-0.8-0.3-1.4
			c0.2-0.5,0-0.2-0.1-0.7c0.2-0.5,0.3-2,0.2-2.7c0,0.1-0.1,0.3-0.1,0c0.3-0.5,0.2-1.2,0.1-2c0.1,0,0.1,0.3,0.3,0.2
			c0-0.7-0.2-0.8-0.1-1.6c0.2,0.1,0.2-0.3,0.4-0.2c0-0.7-0.3-0.5-0.2-1.3c0-0.6,0.4-0.3,0.3-1.1c-0.3-0.3-0.3,0.1-0.4-0.2
			c0-0.4-0.3-1.3-0.1-1.6c0.5-0.3,0.7,1.1,1,0.6C175,75.6,175.2,75.2,175.4,74.5z M168.9,72.4c-0.2-0.7-0.4-0.7-0.3-1.4
			c0.2-0.1,0.2,0.8,0.4,0.8c0.1,0-0.2-0.9-0.2-1.5c0.1,0,0.2-0.1,0.2-0.2c0.1,0.5,0.3,1.3,0.5,2.1C169.3,72.5,169.1,72.1,168.9,72.4
			z M165.5,99.5c0.2-0.3,0.3-1,0.4-1.6c0.1,0.2,0.1,0.5,0,0.8c0.1,0.1,0.1-0.1,0.1-0.2C166.2,99,165.7,99.4,165.5,99.5z
			 M166.3,104.5c-0.1-0.3,0.2-1.2,0.5-0.9C166.9,103.9,166.6,104.7,166.3,104.5z M167,98c-0.1-0.2-0.1-0.9,0.1-1.2
			C167.3,97,167.2,97.7,167,98z M167.3,97.3c0-0.5,0-1.1,0.4-1C167.6,96.6,167.6,97.5,167.3,97.3z M167.2,77.1
			c-0.1-0.6,0.2-0.4,0.1-0.8c0.2,0.6,0.3,1.1,0.5,1C167.9,78.2,167.3,77.2,167.2,77.1z M168.4,81.6c-0.1,0-0.2,0-0.2,0.2
			c-0.2,0-0.1-0.9-0.1-1.2C168.2,80.9,168.4,80.9,168.4,81.6z M167.9,116.1c-0.2-0.1,0.1-0.9,0.4-1.1
			C168.5,115.1,168.1,115.9,167.9,116.1z M169.5,90.9c0,0.4-0.1,0.9,0,1.1c-0.1,0.4-0.1-0.2-0.1-0.2c-0.3,0.3-0.2,1.1-0.3,1.9
			c-0.4-0.3,0.2-1.9,0.3-2.3c0.1-0.6-0.3-0.3-0.1-1.1C169.5,90.1,169.5,90.5,169.5,90.9z M169.4,85.8c-0.3-0.4,0.2-1,0-2.1
			c0.1,0.1,0.2,0.3,0.2,0.6c0.1-0.2,0.2-0.2,0.4,0C169.8,85.2,169.5,85.2,169.4,85.8z M169.9,81.6c0.2-0.4,0.4,0.1,0.4,0.6
			C170.1,82.3,169.9,82.2,169.9,81.6z M173,98.3c0-0.5-0.4-1,0-1.6C173.2,97,173.2,97.5,173,98.3z M174.1,95.4
			c-0.1,0.6-0.2,1.2-0.5,1C173.7,95.8,173.8,95.2,174.1,95.4z M173.6,94.3c-0.2-0.1-0.1-0.6,0-1.1C173.9,93.1,173.8,94,173.6,94.3z
			 M173.9,90.3c0.1,0.2,0.3,0.4,0.2,0.9c-0.1,0.2-0.2,0.2-0.4,0.2C173.7,90.9,173.9,91,173.9,90.3z"/>
		<path class="st4" d="M160.7,129.5c0.1-0.1,0.1-0.2,0.2-0.3c-1.5-0.4-3-0.9-4.4-1.6l0,0c0,0.3-0.3,0.8-0.3,1.1
			c-0.5,0.7-0.1,0-0.3,0c-0.5,0.7-0.8,1.3-1.2,1.8c-0.4,0.6-0.8,1.1-1.5,1.8c-0.1,0.2-0.2,0.4-0.1,0.5c-0.7,0.8-1.6,1.6-2.5,2.6
			c-0.5,0.5-1.4,2.2-1.7,1.6c1.6-1.8,2.4-2.5,3.7-4.3c0.4-0.4,0.3-0.6,0.3-0.8c0.3-0.3,0.5-0.5,0.8-0.8c0.2-0.3,0.5-0.6,0.7-0.8
			c0.4-0.6,0.8-1.1,1.2-1.7c0.2-0.2,0.4-0.6,0.4-0.8c0.1-0.1,0.1-0.2,0.2-0.3c-0.7-0.4-1.5-0.8-2.2-1.3c-0.1,0.1-0.1,0.3-0.2,0.4
			c-0.1,0.2-0.4,0.4-0.7,0.7c-0.3,0.4-0.6,0.9-0.8,1.2c-0.2,0.2-0.2,0.2-0.4,0.4c-0.5,0.7-1.6,1.9-2.5,2.9c-0.8,0.8-1.4,1.5-1.5,1.5
			c-0.7,0.8-0.8,1.1,0,0.5c-0.3,0.5-0.7,0.9-1.1,1.3c-0.5,0.4-0.9,0.8-1.4,1.3c-0.4,0.5-0.7,0.9-1.1,1.3c-0.7,0.6-1.5,1.4-2.3,2.1
			c-0.8,0.7-1.7,1.4-2.6,2.1c-0.8,0.7-1.7,1.2-2.4,1.8c-0.7,0.5-1.4,1-1.9,1.2c0,0.1-0.1,0.3-0.2,0.5c-0.9,0.6-1.7,1.1-2.4,1.2
			c0,0.1,0.2,0.2,0,0.3c-0.5,0-0.7,0.5-1.4,0.8c-0.5,0.3-0.3-0.2-0.8,0.2c0,0.1,0,0.2-0.3,0.4c-0.4,0.2-0.3-0.1-0.8,0.2
			c0,0.4-0.7,0.5-1.1,0.6c-0.6,0.3-1.5,0.8-2.3,1.2c-0.9,0.4-1.7,0.8-2.3,1c-0.6,0.2-1,0.5-1.7,0.8c-0.2,0.1-0.3,0-0.6,0.1
			c-0.6,0.2-1,0.5-1.5,0.7c-0.4,0.1-0.3-0.2-0.8,0.1c-0.4,0.3-1,0.7-1.6,1c0.7-0.2,0.4,0.3,0.1,0.5c0.6-0.1,1.1,0,1.9-0.2
			c0.4-0.1,0.8-0.5,1.2-0.4c-0.6,0.5-1.1,0.7-1.9,0.8c-0.2,0.4,0.6,0,0.5,0.3c-0.8,0.2-1,0-0.8-0.3l-0.4,0.1l-0.4,0.1
			c0.2,0.2,1.1,0.2,0.6,0.7c0.4-0.1,0.7-0.2,0.9-0.1c-0.4,0.1-0.1,0.3-0.5,0.5c-0.6,0.2-1.2,0.4-1.8,0.6c-0.6,0.2-1.2,0.3-1.8,0.5
			c-0.6,0.1-1.2,0.3-1.7,0.4c-0.6,0.1-1.1,0.2-1.6,0.4c-0.3,0.1-0.3,0.3-0.6,0.5c-0.2-0.1-0.3-0.3-0.7-0.3c-0.8,0.1-0.4,0.4-0.8,0.5
			c-0.5-0.1-0.7-0.3-1.5-0.1c-0.3,0.2-1.1,0.8-1.4,0.4c0.3-0.1,0.8-0.1,0.8-0.2c-0.5,0.1-0.6-0.1-1.3,0.1c0,0.1,0.1,0.3-0.4,0.3
			c-0.1,0.2,1,0.2,0.3,0.4c-0.3,0-0.5-0.1-0.7-0.2c0.3-0.1,0.4-0.2,0.4-0.4c-0.5-0.2-1,0.1-1.7,0.2c0.4-0.2-0.4-0.4,0.4-0.5
			c0.6,0,1.6-0.1,2.5-0.2c0.2-0.5-1.4,0.2-1.5-0.1c0.2,0,0.2-0.1,0.2-0.2c0.6,0.2,0.7-0.2,1.2-0.3c0.3,0.2,0.5,0.1,0.3,0.4
			c0.5,0,2-0.1,2.5-0.4c-0.5,0.1-0.8,0.1-0.9,0c0.3-0.1,0.5-0.2,0.8-0.3c0,0.3,0.5,0.1,0.9,0.1c1-0.5,2.1-0.4,2.8-1
			c0.3-0.2-0.2-0.6,0.4-0.9c-0.4,0.1-0.7,0.1-0.8,0c0.8-0.2,0.6-0.5,1.1-0.7c0.4-0.1,1.2-0.1,1.4-0.4c-0.7-0.2-1.9,0.5-2.5,0.9
			l-0.1-0.4c-1,0.2-1.6,0.2-2.4,0.3c-0.4,0.2-0.9,0.4-1.4,0.6c-3.3,0.4-6.7,0.9-9.5,1.5c-0.3,0-0.5-0.1-0.8-0.1
			c-0.7,0.2-2,0.3-2.9,0.2c-0.5,0.1-0.7,0.3-1.5,0.3c0-0.1,0.9-0.3,0.2-0.4c-0.1,0.2-0.8,0.2-1.3,0.2v-0.3c-0.5,0-1.2,0.1-1.7,0.1
			c-0.6,0-1.2-0.1-1.5-0.3c-0.1,0.1-0.2,0.2-0.4,0.2c-0.9-0.1-2.6-0.1-4.1-0.4c0,0-0.3-0.2-0.4-0.2c-0.6-0.2-1.2-0.1-1.4-0.3
			c0-0.1,0.4,0,0.4-0.1c-0.9-0.3-1,0-1.5,0c0.1-0.2-0.1-0.3-0.5-0.4c-0.5-0.1-0.6,0.1-1,0s-0.8-0.4-1.2-0.4c-0.5-0.1-0.5,0.1-1,0
			c0-0.1-0.1-0.1-0.4-0.2c0.1-0.1,0.4-0.1,0.1-0.3c-1.1,0-2.6-0.4-4.1-0.9s-3.1-1.1-4.5-1.6c-0.5-0.2-1.1-0.4-1.8-0.7
			c-0.6-0.3-1.2-0.6-1.8-0.8c-0.2,0.1-2-0.6-0.9-0.4c-1.2-0.2-2-1.1-3.3-1.6c-0.2,0.2-0.6,0.1-1.1-0.1c0-0.1-0.1-0.2-0.1-0.3
			c0.1-0.1,0.5,0.2,0.6,0.1c-0.8-0.6-1.1-0.5-1.6-0.6c-0.1-0.3-0.7-0.7-1.4-1.1c-0.7-0.4-1.6-0.9-2.1-1.3c-0.2-0.2-1.1-0.7-0.6-0.2
			c0.3,0.2,0.9,0.5,0.6,0.6c-0.9-0.7-1-0.5-1.8-1c-0.3,0.1,0,0.4-0.2,0.6c-0.3-0.2-0.4-0.1-0.6-0.2c-0.9-0.6-1.8-1.2-2.6-1.9l-2.5-2
			c-0.5,0.2,0.7,0.7,0.6,0.9c-0.4,0.1-0.7-0.5-1.4-1l0.2-0.3l-0.6-0.5c-0.3-0.3,0.1,0.4-0.5-0.1c-0.3-0.3-0.4-0.6-0.4-0.8
			c-0.7-0.7-0.8-0.8-1.6-1.6c-0.3,0.1-0.1,0.4-0.2,0.5l-0.6-0.6c-0.6-0.2,0.2,1.2-0.9,0.3c-0.2,0.4,0.2,1.1-0.3,1.4l-1.2-1.2
			c-0.2-0.9-1.7-2.3-2.1-3.3c-0.1,0-0.2,0.2-0.4,0c-0.4-0.5-0.6-0.5-1.1-1.1c-0.4,0-0.6-0.1-0.9-0.4c-0.1-0.1-0.1-0.3-0.2-0.4
			c-0.2-0.2-0.2,0.2-0.5,0.1c-0.1,0-0.2-0.3-0.3-0.3c-0.3-0.1-0.3,0.1-0.6-0.1c0.2,0.2,0.3,0.4,0.1,0.4c-0.5-0.3-0.3,0-0.8-0.2
			c0.2,0.3,0.6,0.6,0.5,0.7c-0.2-0.2-0.3-0.2-0.5-0.4c-0.2,0.3,0.5,1.5-0.4,1.1c0.3,0.6,0.6,0.9,0.1,0.8c0.6,1,0.2,1.4,0.9,2.5
			c-0.1,0.3,0.3,0.8,0,0.9c0.8,0.9,1.6,2,2.6,2.9c0.4,0.3,0.7,0.3,1,0.6c0.6,0.5,1.3,1.1,1.9,1.6c0.6,0.5,1.2,0.9,1.5,1
			c0.5,0.7,1,0.8,1.6,1.3c0.7,0.6,1.6,1.3,1.9,1.5c0.2,0.1,0.6,0.2,0.7,0.3c0.6,0.7,0.2,1.1-0.5,0.9c0.4,0.5,1.1,0.5,1.1,0.8
			c-0.5-0.4-0.5,0.2-1.1-0.4c-0.1,0.2,0.1,0.5-0.2,0.6c0.8,0.4,1.4,0.9,2.1,1.4c0.6,0.4,1.2,0.6,1.9,1c1.1,0.6,2.3,1.4,3,1.8
			c0.8,0.5,1.8,1,2.6,1.4c0.1,0.1,0.5,0.1,0.7,0.2c0.3,0.2,0.8,0.6,1.2,0.7c0.6,0.3,1.2,0.4,1.7,0.7c0.2-0.4,1.5,0.5,2.4,0.9
			c1.1,0.1,2.8,1.3,4.7,1.8c0.1-0.1,0.1-0.1,0.3-0.1c0.5,0.1,1.2,0.4,2,0.6c0.8,0.2,1.5,0.5,1.9,0.7c-0.5,0,0,0.3-0.2,0.5
			c1,0.4,1.8,0.7,3,1c-0.2-0.4,0.7,0.1,0.9,0.1c0.2,0,0.1-0.3,0.5-0.1c0.5,0.3-0.5,0.2,0.4,0.4c0.6,0.1-0.3-0.2,0.1-0.4
			c0.6,0.3,1-0.1,1.1,0.2c-0.9,0,0.2,0.3-0.4,0.4c0.5,0.1,2.5,0.6,2,0.4c-0.3-0.1-0.8-0.2-0.9-0.3c0.6,0.2,0.9,0.1,1.4,0.2
			c0.1,0,1,0.1,1.1,0.2c0.1,0,0.1,0.2,0.4,0.3c0.1,0,0.3-0.1,0.7-0.1c0.4,0.1,0.6,0.2,1.1,0.3c0.6-0.1,1.3,0,2.1,0
			c0.8,0,1.5,0.2,2,0.3c0.1-0.1,0-0.3,0.3-0.2c1,0.3,3.2,0.2,5,0.3c0.4,0,0.5,0.1,0.9,0.1c0.2,0,0.4-0.1,0.9-0.2
			c0.1,0,0.5,0.1,0.9,0c1.4-0.1-1,0-0.4-0.3c0.8,0,1,0.1,1.1,0.3c0.7,0,0.8,0.2,1.6,0.1c0.3,0,0.2-0.2,0.5-0.2
			c0.4,0,0.2,0.2,0.7,0.2c0.6-0.4,1.6,0,2.7-0.3c0.3,0.2,0.3,0.5,0.9,0.5c0-0.2,0-0.3,0.4-0.3c-0.1,0.5,0,0.6-0.7,1.1
			c1.8-0.1,2.3-0.1,3.9-0.3c0-0.2,0.1-0.3,0.4-0.4c0,0.2,0.6,0.1,1.2,0.1c0.1-0.3-0.6-0.1-0.5-0.4c0.4,0,0.8,0.1,0.7,0.4
			c0.7,0,0.3-0.3,0.9-0.4c1.1-0.2,2.2-0.5,3.3-0.7c1.1-0.3,2.1-0.6,3.2-1.1c0.1,0.1,0.3,0.2,0.5,0.2c1.4-0.5,2.9-0.9,4.4-1.4
			c0.8-0.3,1.5-0.5,2.3-0.8c0.4-0.1,0.8-0.3,1.2-0.4c0.4-0.2,0.8-0.3,1.2-0.5l0.6-0.5c0.6,0.1,0.4-0.1,1.1-0.4
			c0.3-0.1,0.4,0,0.7-0.1c-0.1,0,0.6-0.3,0.8-0.4c1.2-0.6,1.7-0.8,2.5-1.2c0-0.6,1.5-0.8,1.6-0.9c0,0,0.1-0.2,0.1-0.3
			c0.3-0.2,0.7-0.3,0.9-0.3c0.5,0,0.9-0.4,1.4-0.7c0.4-0.2,1-0.6,1.4-0.8c0.8-0.5,1.7-0.9,2.2-1.2c0.1,0,0.1-0.2,0.3-0.3
			s0.3-0.1,0.4-0.2c0.7-0.5,1.1-1.1,1.8-1.4c0.1,0.1,0.1,0.3,0.5,0c0.8-0.5,0.1-0.4,0.4-0.6c0.3-0.1,1.3-0.5,1.3-0.8
			c-0.3,0.2-0.6,0.5-0.7,0.2c0.6-0.6,0.7-0.2,1.2-0.6c0-0.6,1.7-1,1.9-1.6c-0.1,0.1-0.2,0.1-0.1-0.1c0.1,0.1,0.4-0.1,0.4,0.2
			c0.3-0.3,1.2-0.8,1.2-1c-1.2,1,0.1-0.8,0.5-0.8c0.1,0.1-0.5,0.4-0.4,0.6c0.9-0.8,1.4-1.5,2.6-2.2c0-0.1-0.2-0.2,0-0.4
			c0.4,0,0.6-0.7,1.2-1c0.1,0.1-0.1,0.3,0,0.4c0.7-1.1,0.9-0.2,1.4-1.1c0-0.4-0.6,0.5-0.6,0c0.2-0.2,0-0.3,0.2-0.5
			c0.2-0.1,0.6-0.7,0.8-0.8c0,0,0.1,0.2,0.1,0.1c0.5-0.4,0.9-0.9,1.6-1.6c0-0.1-0.1-0.1,0-0.3c0.9-0.8,1.8-1.9,2.8-2.9
			c-0.1-0.1-0.2-0.2-0.1-0.4c0.6-0.6,0.2-0.7,0.7-1.2c0-0.2-0.6-0.2-0.3-0.5c0.2-0.2,0.5-0.6,0.6-0.6c-0.4,0.7-0.1,0.5,0,0.9
			c0.5-0.7,1-1.6,1.3-1.8c0,0.3-0.2,0.7,0.2,0.5c0.3-0.6,1-1.5,1.5-2c0.1-0.5-0.5-0.1,0-0.9c0.2,0.2,0.5-0.3,0.6-0.4
			c0.1-0.1-0.1,0.5,0.3-0.1C161.1,129.7,160.4,129.9,160.7,129.5z M111.8,156.6c-0.3,0.4-0.7,0-1.2,0.2
			C110.8,156.5,111.5,156.6,111.8,156.6z M107.8,156.6c0.2,0,0.1-0.2,0.2-0.2c0.2-0.1,1.3,0,1.3,0.2c-0.7,0-0.8,0.3-1.4,0.3
			c0-0.2-0.1-0.3-0.4-0.2C107.2,156.4,107.8,156.5,107.8,156.6z M105.2,157.8c-0.1,0.2-1.3,0.2-1.3,0
			C104.4,157.7,104.8,157.8,105.2,157.8z M46.2,141.2c-0.7-0.5-0.3-0.9,0.3-0.3L46.2,141.2z M48.8,151.5c-0.3-0.2-0.3-0.4-0.7-0.6
			c0.1-0.2,0.2-0.3,0.5-0.2C49.2,151,48.7,151.2,48.8,151.5z M51,144.3c-0.5-0.4-1.1-0.8-0.8-1C50.7,143.7,51.2,144.1,51,144.3z
			 M53.7,154.8c-0.3-0.3-0.4-0.5-1.1-0.9c0.1-0.2,0.3-0.1,0.7,0.1c-0.1-0.1-0.1-0.3,0-0.4c0.8,0.5,0.4,0.5,0.1,0.6
			C53.6,154.5,53.9,154.7,53.7,154.8z M56.8,155.9c-0.7-0.7-1.4-0.5-2.1-0.9c-0.1-0.4,0.7-0.1,1.2,0.2
			C56.3,155.4,57.1,155.8,56.8,155.9z M57.3,156.1c0.2-0.3,0.9,0,1.3,0C59.4,156.7,58.1,156.6,57.3,156.1z M58.2,147.7
			c-0.3-0.1-0.3-0.2-0.3-0.4c-0.4-0.4-0.7,0-0.7-0.4c0.1-0.2,0.4,0,0.7,0.2s0.7,0.5,1,0.6C58.9,148,58.1,147.3,58.2,147.7z
			 M74.4,154.8c-0.6-0.1-0.4-0.4-0.9-0.6C73.8,154.1,74.6,154.6,74.4,154.8z M88.9,160.1l-0.6-0.1v-0.4
			C88.9,159.7,89,159.9,88.9,160.1z M113.3,157.6c-0.4,0,1-0.5,1.6-0.6C115.3,157,113.6,157.4,113.3,157.6z M116.4,157
			c0.8-0.3,0.8,0,1.3-0.1C117.4,157.2,116.5,157.2,116.4,157z M119.2,155c0.3-0.3,0.9-0.3,1.4-0.5
			C120.3,154.7,119.2,155.4,119.2,155z M124.9,154.2c-0.3,0.1-0.3,0.2-0.6,0.3c-0.4,0.2-1.2,0.3-1.7,0.4c-0.5,0.2-0.6,0.4-1,0.5
			s-1.2,0.3-1.3,0.1c-0.4,0.1-0.4,0.2-0.8,0.4c-0.8,0.1,0.6-0.2,0.4-0.3c1.2-0.3,2.8-0.8,3.8-1.5c0.2,0,0.6-0.2,0.7-0.1
			c0.2-0.3,0.9-0.6,1.7-0.9c0.2,0,0.2,0.3,0.7,0C126.9,153.4,125.4,154,124.9,154.2z M146.6,139.6c-0.8,0.8-1.6,1.8-2.3,2.2
			c0-0.4,0.4-0.8,1.2-1.5c0,0-0.1-0.1,0.1-0.2c0,0,0.1,0.1,0.2-0.1c0.3-0.3,0.2-0.5,0.7-0.9c0.4-0.3,0.9-0.5,1.3-0.8
			C147.9,138.8,147,139.2,146.6,139.6z M148.3,138.3c-0.1-0.1,0.1-0.2,0.2-0.4c-0.1-0.2-0.5,0.1-0.7-0.1
			C148.8,136.9,149.1,137.5,148.3,138.3z M158.2,133c0.2-0.4,0.6-1.2,1-1.5C159.2,132,158.7,132.3,158.2,133z"/>
		<path class="st4" d="M167.6,74.7c-0.1-0.5-0.4-0.7-0.3-1.4c-0.4-0.2-0.2,0.5-0.5,0.5c-0.1-0.3,0.1-0.5,0.1-0.4
			c-0.1-1-0.8-1.6-0.7-2.8c0.2,0,0.2-0.4,0.2-0.9c-0.2,0.2-0.3,0.5-0.5,0.7c0,0.1,0,0.2-0.1,0.2l0,0c0,0,0,0.1-0.1,0.1L166,72
			c0.1,0.3,0.4,0,0.4,0.4c0,0.6,0,0.5,0.3,1c-0.1,0-0.3,0-0.2,0.4c0.4,0.1,0.5,0.2,0.7,0.3c0,0.2,0.1,0.6,0,0.6
			c-0.2-0.4-0.6-0.3-0.7-0.7c0.2,1.1,0.8,0.9,1.1,1.5c0,0.2,0,0.4,0.1,0.4C167.5,75.3,167.6,75,167.6,74.7z"/>
		<path class="st4" d="M83.4,4.2c-0.1,0.3,0.5,0.2,0.7,0.2c0.1,0-0.3,0.2-0.2,0.2c0.2,0,1.1-0.2,0.9,0.2c-0.7,0.1-1.1,0-2,0.1
			c0.1-0.2,0.6-0.4,0.2-0.5c-0.5,0.1-2.2,0.3-1.3,0.4c0-0.2,1-0.2,0.9,0c-0.5,0.2-1.6,0.4-2,0.8c0.6-0.2,1.5-0.3,2.5-0.4
			C84,5.1,85,5,85.7,4.8c-0.5,0.1-0.1-0.3,0.2-0.3c0.9-0.1,1.3,0.1,2.2,0.1c-0.1-0.3-0.8-0.4-1.6-0.3c-0.8,0-1.7,0.2-2.2,0.2
			c0.4-0.2,0-0.2,0-0.5c0.8,0.2,2.2,0.1,2.7-0.4c-0.4,0-0.8,0.1-0.7-0.1c-1.4,0-1.6,0.4-2.7,0.5C83.6,4.1,83.6,4.2,83.4,4.2z"/>
		<path class="st4" d="M175.3,84.6c0,1.1-0.1,1.7-0.2,2.7c0.4,0.2,0.1-1.4,0.3-1.6C175.2,85.9,175.5,84.6,175.3,84.6z"/>
		<path class="st4" d="M175.5,91c0.3-0.1,0.3-1.3,0.4-2.2c0.1-0.9,0.1-2,0.2-2.5C175.5,86.6,175.7,89.5,175.5,91z"/>
		<path class="st4" d="M166.5,76.6c0.1,0,0.2,0.1,0.3,0.2c0.1-0.7-0.3-0.9-0.2-1.8c-0.3,0.3-0.2-0.4-0.4-0.6c0,0-0.2,0.5-0.3,0
			c0.1-0.2,0.1-0.5,0-1c-0.3-0.1-0.1,0.7-0.1,1c0,0.4-0.1,0.6,0,1c0.2,0,0.2-0.3,0.2-0.4c0.1,0.9,0.3-0.3,0.4,0.6
			C166.3,75.5,166.5,76.3,166.5,76.6z"/>
		<path class="st4" d="M130.2,147.1c0.1,0.1,0.2,0.2,0.4,0c0.6-0.4,1.2-0.7,1.8-1c0.5-0.4,1-0.7,1.5-1.1c-0.7,0.4-1.3,0.8-1.9,1.1
			C131.3,146.4,130.7,146.7,130.2,147.1z"/>
		<path class="st4" d="M65.9,9.7c0.7-0.2,1.1-0.2,1.4,0c-0.7,0.4-2.2,1-2.6,0.8c0.2,0.2-0.6,0.5,0,0.5c0.7-0.4,1.8-0.7,2.9-1.2
			c0.3-0.1,0.7-0.4,1-0.6c0.4-0.2,1.3-0.3,1-0.5c-0.6,0.1-1,0.3-1.3,0.5c-0.4,0.2-0.7,0.3-1,0.2l-0.1-0.3c0.6-0.3,0.6-0.1,1.1-0.3
			c-0.1-0.3-1,0.1-1.8,0.4c-0.5,0.2-1.1,0.4-1.7,0.6c0,0.1-0.6,0.3-0.6,0.4c0.8-0.3,1.7,0,2.4-0.5C66.1,10,65.8,10,65.9,9.7z"/>
		<path class="st4" d="M70.4,8.5c1.2-0.2,1.1-0.6,1.8-0.9c0.1,0.2-0.8,0.5,0.1,0.4c0.5-0.3,0.1-0.3,0.5-0.6c-0.7,0.2-1,0.2-1.5,0.3
			C71.2,7.9,71.1,8,71,8.2c-0.3,0-0.7,0.1-0.7-0.2c0.3-0.1,0.5-0.2,0.4-0.3c-0.9,0.3-1.7,0.6-1.6,1C69.9,8.4,70.3,8,70.4,8.5z"/>
		<path class="st4" d="M81.6,4.1c-0.7,0-0.5,0.2-0.9,0.3c-0.4-0.1,0-0.1,0-0.4c-0.8,0.3-2,0.3-2.2,0.9c0.6-0.2,0.7,0,0.7,0.2
			C80.1,5,80,4.7,80.5,4.5c0,0.1-0.1,0.2-0.2,0.3c1.5-0.2,2.5-0.6,3.1-1c0.4-0.1,0.8-0.1,0.7-0.3c-0.3,0-1.7,0.3-1.6,0.2
			c0,0,0.6-0.2,0.4-0.2c-0.7,0-0.9,0-1.3,0.3c1.1-0.2,0.3,0,0.5,0.3c0.2,0,0.4-0.1,0.5,0c-0.4,0-1.3,0.3-1.3,0.1
			C81.2,4.2,81.5,4.2,81.6,4.1z"/>
		<path class="st4" d="M71.9,5.3c1.3-0.6,2.9-0.8,4.7-1.2c0.4-0.2,0.2-0.5,1.1-0.4c-0.2,0.2-0.3,0.5-0.8,0.7
			c-0.4,0.1-0.8,0.2-0.6,0.3c1.6-0.3,3.1-0.9,4.3-0.7c-0.1-0.2,0.2-0.2,0.2-0.4c-0.9,0.1-2.2,0.5-2.3,0.1c0.8-0.3,1-0.1,1.8-0.4
			C79.6,3,81,2.9,80.9,2.5c-0.2-0.1-0.7,0-1-0.1c-1.3,0.2-2.4,0.6-3.3,0.8c-0.9,0.3-1.7,0.5-2.3,0.8c-0.6,0.3-0.3,0-0.9,0.2
			c-0.8,0.3-1.5,0.8-2.3,1.1C71.3,5.2,71.7,5.2,71.9,5.3z M74.2,4.2c0.7-0.2,1.7-0.5,1.6-0.1c-0.2,0-0.6,0.1-0.7,0
			C74.5,4.2,72.7,4.6,74.2,4.2z"/>
		<path class="st4" d="M56.6,11.6c-0.8,0.4-1.7,0.8-2.5,1.2s-1.7,0.8-2.4,1.3c-0.4,0.2-0.6,0.5-0.9,0.7c-0.4,0.2-0.7,0.2-1.1,0.4
			c-0.4,0.2-0.8,0.6-1.1,0.8c-1.2,0.8-2.5,1.5-3.6,2.4c-0.4,0.3-0.6,0.6-1,1c-1.5,1.3-3.2,2.5-4.9,4.1c-0.3,0.3,0.1,0.3-0.3,0.7
			c-0.6,0.5-1.3,1.3-1.7,1.5c-0.1,0.2,0,0.5-0.5,0.8c-0.2-0.1,0.4-0.5,0.3-0.7c-1.1,1.2-2.2,2-2.6,2.9c-1.1,0.7-1.5,1.8-2.1,2.5
			c-0.2,0.2-0.3,0.2-0.5,0.5c-1,1.2-2.2,2.7-3.3,4.1c-0.3,0.4-0.2,0.5-0.5,0.8c-0.2,0.2-0.4,0.4-0.5,0.5c-0.1,0.2-0.2,0.6-0.4,0.9
			c-0.2,0.3-0.5,0.6-0.7,0.9c-0.2,0.2-0.1,0.3-0.3,0.6c-0.7,1.2-1.5,2.1-2.1,3.3c-0.3,0.5-0.5,1.2-0.7,1.7c-0.1,0.3-0.2,0.2-0.4,0.6
			c-0.2,0.4-0.1,0.5-0.3,0.9c-0.7,0.6-1,2.1-1.6,3.3c-0.7,1.3-1.3,2.8-1.9,4.4c-0.1,0.4-0.2,0.9-0.3,1.4c-0.1,0.3-0.4,1.4-0.6,2
			c-0.3,0.9-0.7,1.9-1,2.3c-0.1,0.3,0.2,0.2,0,0.7c-0.4,0.4-0.3,0.9-0.7,1.7c0.1,0.1,0.2,0.1,0.1,0.3c-0.3,0.9-0.6,1.8-0.8,3.1
			c-0.1,0-0.2-0.1-0.3,0.1c0.1,0.1,0,0.8-0.1,1.2c-0.1,0.7-0.4,1.4-0.6,2.1c-0.2,0.7-0.4,1.4-0.5,1.8c-0.1,0.3,0,0.5,0,0.7
			c0,0.1-0.3,0.2-0.3,0.6c0.3,1-0.6,2.8-0.3,3.9c-0.4,0.1-0.5,1.2-0.7,2c0.2-0.2,0.5,1.1,0.1,1.9c0.1-0.5-0.2-0.9-0.2-0.5
			c0.1,1.3-0.2,2.5-0.1,3.7c0,0.5-0.3,0.4-0.3,1.1c0.1,0.8,0,1.1,0,1.8c0,1,0.1,1.7,0.1,2.5c0,0.3-0.1,0.5-0.1,0.9
			c-0.1,3.8,0.4,7.9,1,11.8c0.1,0.6,0.1,1.2,0.3,1.8c0.4,1.6,0.8,3.6,1.2,5.2c0.1,0.3,0.2,0.4,0.4,0.9c0.2,0.6,0.3,1.2,0.5,1.8
			l0.1-0.1c-0.1-0.4-0.2-0.9,0-0.7l0.2,0.6c0.1-0.1,0.2-0.2,0.3-0.2c0-0.5-0.5-1.1-0.2-1.4c0.1,0.5,0.2,0.9,0.3,1.2
			c0.2-0.1,0.3-0.2,0.5-0.4c-0.2-0.3-0.3-0.5-0.5-0.7c0.1-0.7-0.5-0.9-0.6-1.7c0.2-0.1,0.3,0.2,0.4,0.1c-0.3-1-0.7-0.2-0.8-1
			l0.4-0.1c-0.3-0.8-0.1-0.9-0.3-1.6c-0.4-0.5-0.4,0-0.7-0.3c0.1-0.3,0.3-0.5,0.2-1c0.3,0.4,0.1,1.4,0.6,1c-0.1,0.7,0.3,1.1,0.4,1.5
			c0.1,0.3-0.2,0.5,0.1,0.9c0.4,0.6,0.6,1.3,1,2.5c0.5-0.4,1-0.8,1.5-1.3c-0.4-1.3-0.7-2.6-1-3.5c-0.1-0.4-0.3-0.9-0.4-1.3
			c-0.2-0.9-0.3-1.7-0.5-2.6c-0.2-0.8-0.3-1.7-0.5-2.5C16.1,97,16,96,15.8,95l-0.4-0.6c0.1,0,0.1-0.3,0.3-0.2
			c-0.1-0.7-0.2-1.8-0.3-2.9s-0.1-2.3-0.2-3.4c-0.5-0.2,0.2,0.7-0.1,0.9c-0.1-0.2-0.2-0.7-0.2-1.1s0.1-0.6,0.3-0.2
			c-0.2-1.6,0-3.8-0.2-5.1c0.2,0,0.2-0.4,0.2-0.9c-0.3,0.6-0.5-0.4-0.3-0.9c0,0.3,0,0.6,0.1,0.7c0-1,0.2-1.8,0.3-2.7
			c0.2-1.4-0.2-1.6,0.1-2.9c-0.3-0.3-0.3,0.7-0.5,0.8c0.1-1.6,0.4-2.5,0.8-3.3c0.1-1.3,0.6-3,0.6-4c0,0.2-0.1,0.4-0.2,0.4
			c0.1-0.9,0.3-1.4,0.5-1.7c-0.3,0.3,0-1,0.1-0.9c-0.1,0.1-0.1,0.8-0.1,0.7c0.2-0.4,0.6-2.4,0.4-2.7c0.5-0.3,0.5-1.5,0.7-2.3
			c0.1-0.4,0.2-0.4,0.3-0.8c0.4-1.4,1-3.3,1.3-4.2c0.7-1.6,1.2-3,1.7-4.2c0.6-1.3,1-2.5,1.6-3.8c0.2-0.5,0.7-0.9,0.5-1.2
			c-0.1,0.2-0.3,0.6-0.4,0.6c0.3-0.8,0.6-0.7,0.9-1.3c-0.1-0.5,0.2-0.6,0.5-1.2c0.4-0.7,0.5-0.9,0.8-1.3c0.1-0.3,0-0.3,0.1-0.5
			c0.1-0.3,0.3-0.8,0.6-1.3c0.3-0.5,0.5-1,0.6-1.1c0.2-0.3,0.4-0.4,0.6-0.7s0.3-0.7,0.5-1c0.3-0.5,0.7-0.9,1.1-1.4
			c0.5-0.7,1-1.5,1.5-2.2s1-1.4,1.6-2.1c0.3-0.4,0.6-0.7,0.9-1.1c0.3-0.3,0.6-0.7,0.9-1c0.2-0.3-0.1-0.3,0.4-0.8
			c-0.1,0.5,0.1,0,0.3,0c0.8-1.1,1.6-1.9,2.5-2.8c0.4-0.4,0.8-0.9,1.3-1.3s1-0.8,1.5-1.3c0.2-0.4,0.5-1.3,1.3-1.6
			c-0.3,0.3-1.1,0.8-0.7,0.9c0.7-0.5,1.5-1.2,2.4-2s1.7-1.6,2.6-2.1c0.2-0.2,0.1-0.3,0.2-0.4c0.5-0.3,0.9-0.4,1.4-0.7
			c1-0.9,2.1-1.6,3.1-2.2c-0.2-0.1,0.6-1,1-0.9c-0.3,0.2-0.6,0.4-0.5,0.5c0.5-0.1,0.7-0.6,1.5-1c-0.7,0.1,0.3-0.8,0.8-0.8
			c0.2,0.1-0.9,0.5-0.4,0.6c1-0.7,1-0.7,1.7-1c0.2-0.4,1-0.8,0.9-1.2c-0.4,0.2-0.4,0.1-0.7,0.2c0.4,0.1,0.2,0.2-0.2,0.5
			c-0.1-0.4-0.6-0.1-1.2,0.2c-0.2,0.2-0.1,0.2-0.3,0.4c-1,0.5-2,1.2-3.2,2.1c0-0.2,0.1-0.3-0.1-0.2c-4.4,2.8-6.1,4.6-10.3,8.2
			c0.1,0.2,0.3-0.1,0.5-0.1c-0.2,0.2-0.1,0.2-0.3,0.4c-0.4,0.4-0.6,0.4-0.7,0.2c-0.4,0.3-1.1,1.2-1.3,1.2c-0.1-0.3,0.5-0.7,0.9-1
			c-0.1-0.1-0.1-0.2,0.2-0.4c0.4-0.4,0.8-0.7,1.1-0.8c0.6-0.5,0.2-0.6,0.8-1.1c1-0.6,2.5-2.1,3.1-2.6c-0.1,0.1-0.3,0.3-0.4,0.2
			c1.4-1,2.1-1.6,3.3-2.8c0.1,0.1-0.4,0.7,0,0.4c-0.1-0.2,0.4-0.1,0.7-0.5c-0.3,0-0.3,0,0-0.4c1.2-0.3,1.8-1.4,3.2-2.1
			c0-0.5-0.8,0.3-0.9-0.1c1-0.8,1.6-1,2.8-1.9c0-0.4-0.8,0.4-0.8,0c0.7,0,1.3-0.7,1.1-0.8c0.3-0.1,0.5-0.1,0.5,0
			c0.7-0.4,0.3-0.6,1.1-0.9c0.3,0.3,1-0.5,1.4-0.8C55.9,12,56.9,11.8,56.6,11.6z M12.8,87.6c0,0.3,0,0.6,0,0.9
			C12.5,88.8,12.4,87.3,12.8,87.6z M13.2,92c-0.2-0.3-0.5-0.3-0.5-1.1c0.3-0.3,0.1,0.7,0.4,0.4c0.1-0.4,0.1-1.1,0.4-1.2
			C13.6,91.2,13,90.8,13.2,92z M13.4,100.3c-0.1-0.3-0.1-0.6-0.2-0.9C13.6,99.2,13.8,100.4,13.4,100.3z M14,99.3
			c0.2,0.2,0.3,0.7,0.4,1.3c-0.2,0-0.4-0.3-0.6-0.8C14,99.6,14,99.5,14,99.3z M14,103.5c0.3-0.1,0.4,0.5,0.6,1.1
			C14.4,104.6,14.2,104,14,103.5z M15.4,108c0.2,0.5,0.4,1.1,0.4,1.3c-0.4,0.2-0.4-0.9-0.4-1.1c-0.2-0.5-0.5-0.5-0.5-1.1
			C15,107.1,15.2,107.5,15.4,108z M14.9,71.2c0.1,0.2,0.2,0.5,0.1,1.2C14.7,72.3,14.8,71.7,14.9,71.2z M15.2,77.1
			c0.3,0,0.4,1,0.2,1.4C15.2,78.1,15,78,15.2,77.1z M15.1,78.9c0.2,0.2,0,1.6-0.3,1.3C14.9,79.6,15.1,79.6,15.1,78.9z M15.7,73.6
			c-0.3-0.1-0.2-0.5,0-0.9s0.4-0.9,0.3-1.3c-0.1-0.3-0.2,0.1,0-0.7C16.5,71.1,15.6,72.7,15.7,73.6z M22.8,46.1
			c-0.3,0.4-0.6,1.5-0.8,1.1c0.3-0.6,0.6-1.2,1-1.8C23,45.6,23,46.2,22.8,46.1z M26.1,40.2c-0.2-0.3,0.5-1,0.8-1.4
			C26.8,39.2,26.5,39.7,26.1,40.2z M42.3,24.3c-0.1,0.5-0.7,0.5-1.1,0.8C41.4,24.5,42,24.6,42.3,24.3z M37.8,27.9
			c0.4-0.3-0.6,1.2-1,1.3C36.8,28.9,37.8,28.2,37.8,27.9z M39.5,23.7c0.4-0.6,1-0.8,1.5-1.4C41.1,22.7,39.9,23.4,39.5,23.7z
			 M45.4,18.6c0.7-0.6,1.1-0.7,1.6-0.9C46.8,18,45.5,18.8,45.4,18.6z M49.2,17.4c-0.5,0.2-1,0.6-1.4,0.7c-0.2,0,0.6-0.7,0-0.4
			C47.9,17.6,49.1,17,49.2,17.4z"/>
		<path class="st4" d="M58.6,12.6C57.9,13,57,13.4,57,13.9c0.3-0.2,0.7-0.4,0.8-0.3c-0.3,0.2,0,0.3-0.3,0.5
			c-0.4,0.3-0.3-0.1-0.7,0.1c0,0.2-0.5,0.5-0.6,0.8c0.6-0.2,1-0.5,1.6-0.9c0.2,0.2,2.5-0.9,1.9-1.2c-0.6,0.3-0.8,0.6-1.6,0.9
			L58,13.4c0.8,0,2.1-1.3,3.1-1.3c-0.3,0.3-0.5,0.3-1,0.5c0.6,0.5,2.7-1,2.7-1.5c0.5-0.3,0.9-0.3,0.9-0.1c-0.7,0.3-1,0.6-1.3,1
			c0.8-0.5,1.7-1,2-1.5c-0.5,0-1,0-1.6,0.1c-0.8,0.5-0.9,0.8-1.9,1.2C60.2,12.1,59.3,12.3,58.6,12.6z"/>
		<path class="st4" d="M69,7c-0.5,0-0.5,0.2-1.1,0.3c-0.3,0-1.3,0.1-1.5,0.5c0.3-0.1,0.8-0.2,1.3-0.3C68.2,7.4,68.7,7.3,69,7z"/>
		<path class="st4" d="M45.7,30.1c0.5-0.7,1.6-1.1,1.7-1.7c-0.4,0.4-0.7,0.5-0.8,0.3c0.4-0.5,0.6-0.3,1-0.7c-0.1-0.1,0-0.3-0.1-0.4
			c-0.4,0.4-0.8,1.1-0.7,0.5c-0.8,0.7-0.7,1.2-1.2,1.8c-0.1-0.1-0.3,0.1-0.3-0.1c0.2-0.2,0.5-0.5,0.3-0.5c-0.5,0.3-0.2,0.4-0.5,0.7
			c-0.3-0.1-0.9,0.8-0.8,0.9c0.5-0.4,0,0.3,0.2,0.3c0.3-0.3,0.5-0.4,0.7-0.5c0-0.3-0.6,0.2-0.2-0.3C45.3,29.9,45.5,30.1,45.7,30.1z"
			/>
		<path class="st4" d="M37.8,39.8c0.6-0.8,1.2-1.5,1.7-2c0.3-0.3,0.2-0.4,0.5-0.7c0.2-0.3,0.4-0.3,0.6-0.5c0.5-0.6,0.9-1.3,1.4-1.5
			c-0.2-0.1-0.6,0.3-1,0.5c-0.7,1.1-1.6,1.9-2.6,3.3c-0.1-0.2-0.8,0.1-0.7,0.5c0.1-0.2,0.3-0.1,0.1,0.1c-0.4,0.3-0.4,0.7-0.8,1.2
			c-0.3,0.4-1.3,1.2-0.9,1.6C36.6,41.3,37.3,40.5,37.8,39.8z"/>
		<path class="st4" d="M114.9,153.7c1.1-0.2,2.6-0.7,3.4-1.2C117.4,152.9,115.8,153.3,114.9,153.7z"/>
		<path class="st4" d="M91.6,156.8c-0.5,0-1-0.3-1.2,0c1.2,0.1,2.1,0.1,3,0.1s1.6,0,2.3,0c0.5,0,1.5,0.3,1.8-0.2
			c-0.9,0-1.9,0.1-2.9,0.1C93.5,156.8,92.5,156.8,91.6,156.8z"/>
		<path class="st4" d="M122.3,19c-0.5-0.2-0.9-0.3-1.5-0.5s-1.2-0.7-1.5-0.5c0.7,0.3,1.2,0.5,1.7,0.7C121.5,19,122,19.1,122.3,19z"
			/>
		<path class="st4" d="M123.4,150.6c0.7-0.3,1.3-0.6,2-0.8c0.8-0.3,1.5-0.8,2.3-1.2c0.7-0.4,1.5-0.8,2.2-1.1c-0.5-0.2-1.3,0.6-2,1
			c-0.8,0.4-1.5,0.7-2.2,1.1c-0.8,0.3-1.5,0.7-2.4,1.1c-0.6,0.3-1.8,0.6-2,1c0.4-0.2,0.8-0.3,1.1-0.5
			C122.8,150.9,123.1,150.8,123.4,150.6z"/>
		<path class="st4" d="M59.3,20.8c0-0.3,0.7-0.6,0.7-0.9c-0.5,0.3-0.6,0.6-1.1,0.9s-1.1,0.6-1.7,1c-0.6,0.3-1.2,0.7-1.6,1.1
			c0.5-0.2,1.1-0.6,1.8-1C57.9,21.5,58.6,21.1,59.3,20.8z"/>
		<path class="st4" d="M56.4,19.9c-0.5,0.3-1.1,0.6-1.2,0.9c1.2-0.8,2.7-1.5,4.2-2.4c0.8-0.4,1.5-0.8,2.3-1.2
			c0.7-0.4,1.5-0.8,2.1-1.1c-0.7,0.1-1.7,0.7-2.6,1.2c-0.9,0.5-1.8,0.9-2.2,0.9c-0.5,0.3-0.7,0.8-1.1,0.6c0.2-0.2,0.5-0.5,1-0.8
			c0.3,0,0.5,0.1,1.2-0.3c0.5-0.5-0.7,0.2-0.8,0.2s0-0.3-0.1-0.3c-0.5,0.1-1,0.6-1.5,0.7c-0.2,0.2,0.1,0.3-0.2,0.5
			c-0.2-0.2-0.9,0.3-0.9,0.5c0.4-0.2,1-0.7,1-0.3C57.5,19.3,57,19.6,56.4,19.9z"/>
		<path class="st4" d="M62.4,19c0.4,0,0.9-0.2,1.1-0.5c-0.8,0.4-1.1,0.3-1.7,0.6c-0.4,0.2-0.7,0.8-1.5,1.1c0,0.3,0.6-0.1,0.8-0.2
			c0.4-0.2,0.7-0.7,1.2-0.7C62.4,19.2,62.3,19.1,62.4,19z"/>
		<path class="st4" d="M57.6,21.1c0-0.4-0.6,0.2-1,0.4c-0.1,0,0.1-0.3,0.1-0.3c-0.6,0.2-0.6,0.4-1,0.4c-0.1,0-0.3,0-0.1-0.2
			c0.3-0.3,0.3,0,0.4-0.1c0.2-0.1,0.5-0.4,0.7-0.4c0.1,0,0.2,0.2,0.6-0.1c0.2,0,0.7,0.4,0.9-0.1c-0.5,0,1.3-0.5,1-0.8
			c-0.6,0.2-1.3,0.7-1.6,0.6c0-0.2,0.1-0.3-0.1-0.2c-0.7,0.6-0.9,0.4-1.5,0.8c-1.1,0.7-2.2,1.7-3.4,2.7l0.1,0.2
			c0.5-0.5,1.2-0.5,1.4-0.9c-0.2,0.1-0.3-0.1,0.1-0.3c0.3-0.1,0.2,0.1,0.1,0.2C55.4,22.3,56.1,21.9,57.6,21.1z M55.5,22
			c-0.5,0.4-0.6,0.2-1,0.4C54.6,22.1,55.6,21.7,55.5,22z"/>
		<path class="st4" d="M18.4,97.3c0.3,0.4,0.5,1.1,0.7,1.6c-0.3,0.3-0.3-0.9-0.5-1c0,0.3,0,0.5-0.1,0.7c0.5,1.2,0.5,2.6,0.8,4
			c0,0.1,0.2,0.3,0.3,0.6c0.2,0.9,0.2,1.7,0.4,2.6c0.1,0.3,0.1,0.5,0.2,0.8c0.3-0.3,0.6-0.7,0.9-1.1c-0.2-0.4-0.5-0.5-0.6-1.4
			c0.2,0.1,0.6,0.6,0.8,1.2c0.1-0.1,0.1-0.2,0.2-0.2c0-0.1,0-0.2,0-0.3c-0.4-0.2-0.7-0.8-1-1.5c-0.1-1.3-0.4-2.4-0.6-4
			c-0.3-0.1-0.4-0.8-0.6-1.2c-0.2-0.1-0.2,0.3-0.3,0c0-0.9,0.2,0,0.5-0.1c-0.3-0.7-0.3-0.9-0.4-1.7c0-0.3-0.2-0.8-0.3-1.1
			c0-0.1,0.1-0.5,0.1-0.7c0,0-0.1-0.2-0.1-0.4c0-0.5-0.2-1.3-0.2-1.9c-0.1-0.5,0.2-1.6-0.2-1.7c-0.2,0.2-0.1,1-0.2,1.5
			c0,0.4-0.2,0.4-0.2,0.9c0,0.7,0.1,1.5,0.2,2.3C18.4,96.1,18.5,96.8,18.4,97.3z M20.6,105.9c0,0.5-0.5-1.4-0.4-1.7
			C20.3,103.8,20.3,105.3,20.6,105.9z M20.2,101.8c0,0.5,0.2,1.2-0.1,1.3c-0.1-0.6-0.3-0.5-0.3-1C20.1,102.2,19.9,101.7,20.2,101.8z
			 M19.4,101.3c-0.2-0.7,0.3-0.3,0-1.1c0.1,0,0.2,0.4,0.1,0.4c0.1,0.5,0.4,0.3,0.5,1C19.7,101.8,19.7,101,19.4,101.3z M19.7,99.3
			c0.1,0.7,0.5,1.2,0.1,1.3c0-0.2,0-0.4,0.1-0.5c-0.3-0.7-0.3,0.1-0.6-0.3C19.3,99.5,19.6,99.5,19.7,99.3z"/>
		<path class="st4" d="M36.1,40.4c0.1-0.1,0.1-0.2,0.1-0.2c-0.3,0.4-0.4,0.7-0.6,1.1c-0.8,0.3-1.4,1.9-1.3,2.1
			c0.3-0.4,0.4-0.3,0.7-0.8c-0.6-0.4,1.3-1.6,1.3-2.3C36.2,40.4,36.1,40.4,36.1,40.4z"/>
		<path class="st4" d="M21.1,94.9c0-0.4,0.2-0.6,0-0.8c0,0.4-0.1,0.7-0.3,0.9c0.5,0.8-0.1,1.8,0.5,2.3c-0.1-0.6,0.1-0.9,0-1.5
			C21.3,95.4,21.2,95.2,21.1,94.9z"/>
		<path class="st4" d="M20.5,91.1c0,0.2-0.1,0.2-0.2,0.2c0.4,1.1-0.2,2.1,0.4,2.9c0-0.8,0.2-1.5,0.4-0.5c0-0.9-0.3-1.1-0.5-1.6
			C20.9,92.1,20.7,91,20.5,91.1z"/>
		<path class="st4" d="M19.7,86.1c0.1,0,0.3,0,0.3,0.2c0,1.4-0.2,3.3,0.6,4c0.1-0.4,0.1-0.9,0.2-1.3c-0.8,0-0.4-1.5-0.6-2.7
			c0.1,0,0.1,0.3,0.3,0.2c0-0.7-0.3-0.7-0.5-1.1c-0.2-0.8,0.1-1.6-0.1-2.3c0,0.5-0.3,0.4-0.3,1C19.7,85,20,85.5,19.7,86.1z"/>
		<path class="st4" d="M21.4,104c-0.1-0.4-0.2-0.4-0.3-0.8c-0.2-0.6-0.5-3.5-0.7-3.1c0.3,1.2,0.3,2.2,0.5,3.2
			C21.1,103.1,21.1,104.4,21.4,104z"/>
		<path class="st4" d="M18.9,78.7c-0.2-0.7,0.4-2.5,0-2.1c0-0.9,0.5-1.6,0.1-1.9c-0.3,0.5-0.2,1.5-0.3,2.3
			C18.7,77.5,18.5,78.8,18.9,78.7z"/>
		<path class="st4" d="M19.1,89.3C19,88.8,19,88.2,19,87.6c0-0.7-0.1-1.5-0.1-1.7c0,0.2,0.4-1.4,0.1-1.3c0.1,0.4-0.1,0.9-0.2,1.3
			c0,0.6,0.1,1.1,0.1,1.7c0,1-0.2,1.9,0.1,2.6C18.9,89.7,18.9,89.4,19.1,89.3z"/>
		<path class="st4" d="M20.7,98.3c-0.1,0.6,0.3,0.6-0.2,0.5c0.5,0.9,0.2,2.6,0.9,2.6C20.9,100.3,21.3,98.9,20.7,98.3z"/>
		<path class="st4" d="M18.5,83.3c0.3,0.2,0.5,0.1,0.6,0.9c0,0.7,0.1,1.3,0.4,1.3c0.1-0.9-0.2-0.7-0.2-1.3c0-0.4,0.3-0.3,0.2-0.8
			c-0.1,0-0.3,0-0.3-0.2c0.2-0.8-0.1-0.9,0-1.7h0.3c0,0.6-0.1,1.2,0.1,1.3c0.2-1-0.1-1,0-2.1c0.2-0.2,0.3-1,0.1-1.3
			c0.1,0.4-0.3,1-0.4,1.2c0,0,0.1,0.1,0.1,0.2c-0.1,0.3-0.2,0.3-0.4,0.2c0.1,0.1,0.1-0.3,0-0.4c-0.1-0.2-0.4,0.1-0.2-0.4
			c0.2-0.1,0.5,0.3,0.5-0.4c-0.3,0.1-0.5-0.2-0.6-0.5c0,1-0.3,2.5-0.1,3.2c0-0.2,0.2-0.3,0.2,0C18.9,83.3,18.4,82.5,18.5,83.3z"/>
		<path class="st4" d="M21.4,76.2c-0.1,0.8-0.2,1.3-0.3,0.6c-0.1,0.4,0.1,1.5,0.1,2.3c0.2-0.5,0-0.9,0.2-1.4
			C21.2,77.7,21.7,75.6,21.4,76.2z"/>
		<path class="st4" d="M22.7,85.3c-0.1,0.7,0.2,2.3,0.3,3.4c0.5,0.1,0.2-1.4,0-1.6C23.1,86.3,23.1,85.6,22.7,85.3z"/>
		<path class="st4" d="M20.5,76.3c-0.1,1,0.4-0.2,0.4,0.5c0.1-0.8-0.2-0.7-0.3-1.1c0-0.9,0.4-0.7,0.4-1.6c-0.3-0.2-0.2,0.7-0.4,0.1
			c-0.3,1.1-0.2,2.1-0.5,2.9C20.3,77.4,20.3,76.4,20.5,76.3z"/>
		<path class="st4" d="M19.8,74.9c0.3,0.6-0.2,0.9-0.3,1.2c-0.2,0.6-0.2,1.3-0.4,1.9c0.3,0.2,0.2-0.5,0.3-0.8
			c0.2,0.1,0.1-0.3,0.2-0.6c0-0.1,0.2-0.1,0.2-0.2c0.1-0.2,0-0.6,0.1-0.8c0-0.1,0.5-0.7,0.2-0.8c-0.3,0.8-0.1-0.5-0.2-0.5
			c-0.1,0.3-0.2,0.4-0.3,0.4c0-0.2,0-0.4,0-0.4c0.1,0.9-0.3,0.8-0.3,1.9C19.6,76.3,19.6,75.3,19.8,74.9z"/>
		<path class="st4" d="M23.5,76.7c0,0.3,0.1,0.6,0.1,1s-0.2,1.2,0.1,1.2c0.2-0.6-0.1-1.1,0-2c0.1-1.1,0.6-2.5,0.5-3.6
			c-0.3,1-0.3,0.9-0.3,2c-0.3,0.2-0.2,0.8-0.2,1C23.7,76.5,23.6,76.5,23.5,76.7z"/>
		<path class="st4" d="M20,80.5c0,0.2-0.1,0.6,0,0.8c0.2,0.1,0.5-0.7,0.3-1c-0.4,0.3,0-1.1,0.1-1.7c-0.3-0.3-0.2,0.8-0.5,0.6
			c0-0.7,0.2-0.6,0.3-1c-0.4-0.1-0.3,0.7-0.3,1.2c0,0.3-0.1,0.6-0.1,0.8C19.9,80.3,20,80.4,20,80.5z"/>
		<path class="st4" d="M20.1,95.2c-0.6-0.1,0,2,0.4,1.7c-0.1-0.5,0.1-0.6,0-1.1c-0.1-0.8-0.5-1.5-0.9-1.6c0.1,1,0.5,0.5,0.7,1.4
			c0,0.2-0.1,0.9-0.2,0.5C19.9,95.5,20.2,95.6,20.1,95.2z"/>
		<path class="st4" d="M19.1,91.4c0.2,0.9,0.3,0.3,0.7,0.8c0-0.6,0.3-0.3,0.2-0.9c0-0.2-0.2-0.2-0.2-0.6c0-0.5,0.3-0.4,0.2-1.1
			c-0.1-0.4-0.2-0.8-0.5-0.8c-0.1,0.8,0.1,1,0.2,1.9c-0.3,0.2-0.2-0.6-0.5-0.4v0.4c-0.1,0-0.1,0.2,0,0.2c0.1-0.6,0.5,0.1,0.5,0.6
			C19.4,91.8,19.4,91.3,19.1,91.4z"/>
		<path class="st4" d="M21.9,98.6c-0.1-0.8-0.2-1.5-0.3-1.9c-0.1-0.2-0.1-0.1-0.2,0c0.1,0.7,0.1,1.4,0.3,2.1
			c0.2,0.7,0.4,1.4,0.6,2.2c0.1,0.8,0.3,0.7,0.1,0C22.2,100.3,22,99.4,21.9,98.6z"/>
		<path class="st4" d="M22.3,103.9c0-0.1,0-0.2-0.1-0.4c-0.5-0.2-0.4-1-0.6-1.8c-0.4,0.2,0.1,1.6,0.4,2.6
			C22.1,104.2,22.2,104.1,22.3,103.9z"/>
	</g>
</g>
<rect x="192.2" y="140.3" class="st5" width="356.8" height="19.7"/>
<g>
	<linearGradient id="SVGID_5_" gradientUnits="userSpaceOnUse" x1="229.0591" y1="51.8892" x2="229.0591" y2="118.0996">
		<stop  offset="0" style="stop-color:#02BEE1"/>
		<stop  offset="0.7688" style="stop-color:#00436D"/>
	</linearGradient>
	<path class="st6" d="M256.4,109.9c0,0.5-0.6,1.8-1.9,3.9c0,0.1-0.6,1.2-1.7,3.3c-0.3,0.7-0.7,1-1.1,1h-49.4c-0.4,0-0.6-0.2-0.6-0.5
		v-2.2c0-0.4,0.2-0.5,0.5-0.5h6.5c0.6,0,0.9-0.3,0.9-1c0,0,0-1.3-0.1-4c-0.1-2.7-0.1-5-0.1-6.9c0-3,0.1-9.6,0.2-19.6
		c0.1-10.1,0.2-16,0.2-17.9c0-6.9-0.7-10.4-2-10.4h-4.5c-0.5,0-0.8-0.2-0.8-0.6v-2c0-0.4,0.2-0.6,0.7-0.6h27.7
		c0.3,0,0.5,0.1,0.5,0.4v2.3c0,0.3-0.1,0.5-0.4,0.5h-9.1c-0.6,0-0.9,0.2-1,0.7s-0.2,8.3-0.4,23.5c-0.2,14.1-0.2,22.2-0.2,24.5
		c0,7.6,0.9,11.3,2.6,11.3c7.8,0,13.8-0.2,17.8-0.5c4.6-0.4,9.1-1.9,13.7-4.6c0.8-0.5,1.3-0.7,1.6-0.7
		C256.2,109.4,256.4,109.7,256.4,109.9z"/>
	<linearGradient id="SVGID_6_" gradientUnits="userSpaceOnUse" x1="273.8101" y1="51.8892" x2="273.8101" y2="118.0996">
		<stop  offset="0" style="stop-color:#02BEE1"/>
		<stop  offset="0.7688" style="stop-color:#00436D"/>
	</linearGradient>
	<path class="st7" d="M287.3,117.7c0,0.3-0.1,0.4-0.4,0.4h-25c-0.5,0-0.7-0.2-0.7-0.5v-2.1c0-0.4,0.2-0.6,0.6-0.6h5.6
		c0.5,0,0.7-0.5,0.7-1.4c0-0.3,0-8.5,0-24.5c0-16,0-24.3,0-24.7c0-6.1-0.6-9.2-1.8-9.2H261c-0.5,0-0.7-0.2-0.7-0.5v-2.3
		c0-0.3,0.2-0.4,0.5-0.4h25.1c0.3,0,0.4,0.1,0.4,0.4v2.4c0,0.3-0.2,0.4-0.5,0.4h-5.9c-0.6,0-0.9,0.2-0.9,0.7c0,0.2,0,7.5,0,22
		c0,14.5,0,22.2,0,23.2c0,4.6,0,7.3,0.1,8.1c0.2,3.9,0.9,5.8,2,5.8h5.8c0.3,0,0.5,0.1,0.5,0.4V117.7z"/>
	<linearGradient id="SVGID_7_" gradientUnits="userSpaceOnUse" x1="326.1785" y1="51.8892" x2="326.1785" y2="118.9785">
		<stop  offset="0" style="stop-color:#02BEE1"/>
		<stop  offset="0.7688" style="stop-color:#00436D"/>
	</linearGradient>
	<path class="st8" d="M360,54.6c0,0.3-0.1,0.5-0.3,0.5h-3.1c-0.7,0-1.1,0.2-1.5,0.7c-3.5,8.1-7.4,17.1-11.6,27
		c-4.9,10.7-9.8,22-14.5,33.9c-0.6,1.5-1.4,2.3-2.4,2.3c-1,0-1.8-0.6-2.3-1.7c-4.7-10.8-9.5-21.9-14.5-33.5
		c-1.9-4.2-3.7-8.4-5.6-12.5c-3.3-7.1-5.8-11.9-7.6-14.5c-0.8-1.1-1.8-1.7-2.8-1.7h-0.9c-0.3,0-0.5,0-0.5-0.1s-0.1-0.2-0.1-0.3v-2.2
		c0-0.3,0.2-0.5,0.5-0.5h22.4c0.4,0,0.6,0.1,0.6,0.4v2.2c0,0.4-0.1,0.6-0.4,0.6h-4.6c-0.8,0-1.3,0.4-1.3,1.2s0.2,1.5,0.5,2.3
		c3.2,7,6.5,14.4,10,22.3c4.4,11.2,7.4,18.5,9.1,21.8c0.3,0.7,0.6,1,0.9,1c0.2,0,0.5-0.2,0.7-0.6c0.7-1.1,2.4-5.2,5.3-12.5
		c1.5-3.7,3-7.5,4.5-11.3c2.5-5.5,4.6-10.9,6.5-16.1c1-3,1.5-5.1,1.4-6.3c-0.1-1.3-0.7-1.9-1.7-1.9h-5c-0.5,0-0.7-0.2-0.7-0.5v-2.2
		c0-0.3,0.1-0.5,0.4-0.5h18.1c0.3,0,0.5,0.1,0.5,0.4V54.6z"/>
	<linearGradient id="SVGID_8_" gradientUnits="userSpaceOnUse" x1="378.9863" y1="51.8892" x2="378.9863" y2="118.0996">
		<stop  offset="0" style="stop-color:#02BEE1"/>
		<stop  offset="0.7688" style="stop-color:#00436D"/>
	</linearGradient>
	<path class="st9" d="M392.5,117.7c0,0.3-0.1,0.4-0.4,0.4h-25c-0.5,0-0.7-0.2-0.7-0.5v-2.1c0-0.4,0.2-0.6,0.6-0.6h5.6
		c0.5,0,0.7-0.5,0.7-1.4c0-0.3,0-8.5,0-24.5c0-16,0-24.3,0-24.7c0-6.1-0.6-9.2-1.8-9.2h-5.2c-0.5,0-0.7-0.2-0.7-0.5v-2.3
		c0-0.3,0.2-0.4,0.5-0.4h25.1c0.3,0,0.4,0.1,0.4,0.4v2.4c0,0.3-0.2,0.4-0.5,0.4h-5.9c-0.6,0-0.9,0.2-0.9,0.7c0,0.2,0,7.5,0,22
		c0,14.5,0,22.2,0,23.2c0,4.6,0,7.3,0.1,8.1c0.2,3.9,0.9,5.8,2,5.8h5.8c0.3,0,0.5,0.1,0.5,0.4V117.7z"/>
	<linearGradient id="SVGID_9_" gradientUnits="userSpaceOnUse" x1="436.2617" y1="51.8892" x2="436.2617" y2="120.1016">
		<stop  offset="0" style="stop-color:#02BEE1"/>
		<stop  offset="0.7688" style="stop-color:#00436D"/>
	</linearGradient>
	<path class="st10" d="M472.6,54.5c0,0.4-0.2,0.6-0.6,0.6h-6.9c-0.7,0-1.1,0.4-1.1,1.3c0,0.3,0,4.6-0.1,12.9
		c-0.1,8.3-0.1,12.9-0.1,13.6c0,0.7-0.1,6.5-0.2,17.5c-0.1,10.9-0.2,16.7-0.2,17.3c0,1.3-0.3,2.1-0.8,2.3c-1,0.4-1.8,0.2-2.4-0.6
		c-8.9-10.8-18.1-21.9-27.6-33.4c-4.8-6.3-10.5-13.4-17.2-21.2c-0.5-0.4-0.8-0.3-1,0.4c-0.1,0.4-0.4,5.9-0.7,16.4
		c-0.4,10.6-0.6,17.4-0.6,20.4c0,8.7,0.9,13,2.7,13h6c0.4,0,0.6,0.1,0.6,0.4v2.4c0,0.3-0.2,0.4-0.5,0.4h-20.1
		c-0.4,0-0.6-0.1-0.6-0.3v-2.4c0-0.4,0.2-0.5,0.6-0.5h6c0.6,0,0.8-0.2,0.8-0.7v-7c0-1.9,0.3-9.5,0.9-22.8
		c0.6-13.3,0.9-20.1,0.9-20.3c0-6-2.3-9-6.8-9h-3.3c-0.3,0-0.4-0.2-0.4-0.5v-2.2c0-0.3,0.2-0.5,0.5-0.5h17.3c0.6,0,1,0.3,1.3,0.8
		c0.3,0.5,3.2,4.2,8.6,11c5.4,6.8,8.4,10.6,9.1,11.4c6.9,8.2,14.2,16.8,21.9,25.6c0.1,0.1,0.3,0.1,0.4,0.1c0.3,0,0.5-0.5,0.5-1.4
		c0-0.6,0-5.6,0-15c0-9.4,0-14.5-0.1-15.4c-0.5-9.3-1.7-14-3.7-14h-6c-0.5,0-0.7-0.2-0.7-0.5v-2.2c0-0.3,0.2-0.5,0.6-0.5h22.3
		c0.5,0,0.7,0.1,0.7,0.4V54.5z"/>
	<linearGradient id="SVGID_10_" gradientUnits="userSpaceOnUse" x1="513.2148" y1="51.2056" x2="513.2148" y2="118.7832">
		<stop  offset="0" style="stop-color:#02BEE1"/>
		<stop  offset="0.7688" style="stop-color:#00436D"/>
	</linearGradient>
	<path class="st11" d="M547.9,89c0,0.4-0.2,0.6-0.6,0.6H541c-0.4,0-0.6,0.2-0.6,0.6c0-0.2,0,1-0.1,3.6c-0.1,2.6-0.1,5-0.1,7.1
		c0,4.9,0.1,8.3,0.3,10.1c0,0.5-0.2,0.8-0.7,0.9c-1.6,0.7-3.5,1.5-5.9,2.5c-7.9,2.9-15,4.4-21.2,4.4c-6.3,0-11.5-0.8-15.8-2.4
		c-5.6-2.1-10.1-5.4-13.3-9.8c-3.3-4.6-5-11.1-5-19.7c0-8.8,2.9-16.6,8.6-23.3c4.3-5,10.5-8.7,18.7-10.9c3.7-1,8.3-1.5,14-1.5
		c6.3,0,11.4,0.6,15.5,1.9c2.2,0.7,4,1.3,5.1,1.8c0.5,0.2,0.7,0.5,0.6,0.8c-0.3,1.6-0.7,3.5-1.1,5.7c-0.3,2-0.7,4.2-1.3,6.5
		c-0.1,0.3-0.2,0.4-0.5,0.4c-0.6,0-0.9-0.2-0.9-0.5c0-0.1-0.2-1.1-0.7-3.1c-0.4-1.6-1.2-3-2.5-4c-4.7-3.8-11.1-5.7-19.1-5.7
		c-7.1,0-13.4,3-18.8,9c-4.2,4.7-6.3,11.7-6.3,21.1c0,9.8,2.4,17.1,7.2,22c5.2,5.3,12.3,8,21.1,8c5.1,0,8.9-1.6,11.2-4.7
		c0.3-0.4,0.4-0.9,0.4-1.6V102c0-3.1,0-5.3-0.1-6.5c-0.2-3.9-0.5-5.9-1-5.9h-10c-0.4,0-0.6-0.3-0.6-0.9v-1.6c0-0.5,0.2-0.7,0.7-0.7
		c0.1,0,2.3,0,6.7,0c4.3,0,6.8,0,7.4,0c0.6,0,3.1,0,7.5,0c4.4,0,6.6,0,6.7,0c0.5,0,0.8,0.2,0.8,0.6V89z"/>
	<linearGradient id="SVGID_11_" gradientUnits="userSpaceOnUse" x1="600.7148" y1="51.9868" x2="600.7148" y2="118.0996">
		<stop  offset="0" style="stop-color:#02BEE1"/>
		<stop  offset="0.7688" style="stop-color:#00436D"/>
	</linearGradient>
	<path class="st12" d="M627.2,71.6c0,5-1.8,9.2-5.5,12.8c-4,3.9-9.8,5.9-17.3,5.9c-3.6,0-7-0.4-10.3-1.3c-0.3-0.1-0.4,0.1-0.4,0.6
		v14.2c0,7.4,0.7,11.1,2.1,11.1h7.7c0.4,0,0.6,0.2,0.6,0.6v2c0,0.4-0.1,0.6-0.4,0.6h-29c-0.3,0-0.4-0.1-0.4-0.4v-2.2
		c0-0.4,0.2-0.6,0.5-0.6h7.1c0.6,0,0.8-0.4,0.8-1.2v-49c0-5.9-0.4-8.9-1.2-8.9h-5.7c-0.5,0-0.7-0.1-0.7-0.4v-2.3
		c0-0.3,0.2-0.5,0.6-0.5l12.8-0.5c1.7-0.1,6.1-0.1,13.1-0.1c3.8,0,7.1,0.2,9.7,0.6c3.9,0.6,7.5,2.4,10.8,5.6
		C625.5,61.4,627.2,65.9,627.2,71.6z M616.9,72.3c0-3.9-1.6-7.7-4.8-11.3c-3.2-3.6-8.4-5.4-15.5-5.4c-1.1,0-1.8,0.1-2,0.2
		c-0.2,0.1-0.4,0.5-0.5,1c-0.2,2-0.3,6.9-0.3,14.6c0,0.3,0,2.5,0,6.7c0,4.2,0,6.4,0,6.6c0,0.5,0.2,0.7,0.7,0.9
		c2.2,0.7,4.8,1.1,7.7,1.1c5,0,8.6-1.1,10.9-3.4C615.5,80.7,616.9,77,616.9,72.3z"/>
	<linearGradient id="SVGID_12_" gradientUnits="userSpaceOnUse" x1="661.042" y1="51.8892" x2="661.042" y2="118.0996">
		<stop  offset="0" style="stop-color:#02BEE1"/>
		<stop  offset="0.7688" style="stop-color:#00436D"/>
	</linearGradient>
	<path class="st13" d="M688.4,109.9c0,0.5-0.6,1.8-1.9,3.9c0,0.1-0.6,1.2-1.7,3.3c-0.3,0.7-0.7,1-1.1,1h-49.4
		c-0.4,0-0.6-0.2-0.6-0.5v-2.2c0-0.4,0.2-0.5,0.5-0.5h6.5c0.6,0,0.9-0.3,0.9-1c0,0,0-1.3-0.1-4c-0.1-2.7-0.1-5-0.1-6.9
		c0-3,0.1-9.6,0.2-19.6c0.1-10.1,0.2-16,0.2-17.9c0-6.9-0.7-10.4-2-10.4h-4.5c-0.5,0-0.8-0.2-0.8-0.6v-2c0-0.4,0.2-0.6,0.7-0.6h27.7
		c0.3,0,0.5,0.1,0.5,0.4v2.3c0,0.3-0.1,0.5-0.4,0.5h-9.1c-0.6,0-0.9,0.2-1,0.7s-0.2,8.3-0.4,23.5c-0.2,14.1-0.2,22.2-0.2,24.5
		c0,7.6,0.9,11.3,2.6,11.3c7.8,0,13.8-0.2,17.8-0.5c4.6-0.4,9.1-1.9,13.7-4.6c0.8-0.5,1.3-0.7,1.6-0.7
		C688.2,109.4,688.4,109.7,688.4,109.9z"/>
	<linearGradient id="SVGID_13_" gradientUnits="userSpaceOnUse" x1="722.541" y1="47.8853" x2="722.541" y2="118.0996">
		<stop  offset="0" style="stop-color:#02BEE1"/>
		<stop  offset="0.7688" style="stop-color:#00436D"/>
	</linearGradient>
	<path class="st14" d="M756.4,117.6c0,0.3-0.1,0.5-0.3,0.5h-23.9c-0.2,0-0.3-0.2-0.3-0.6v-1.9c0-0.5,0.2-0.7,0.6-0.7h5.9
		c0.5,0,0.7-0.3,0.6-0.9c0-0.1-0.1-0.2-0.1-0.4c-0.2-0.7-1.3-3.7-3.2-9.3c-2.1-5.7-3.2-8.8-3.4-9.2c-0.2-0.7-0.6-1-1.1-1h-23.3
		c-0.4,0.1-0.7,0.3-0.8,0.6c-1.6,4.7-3,8.8-4,12.4c-0.8,2.3-1.3,4.4-1.5,6.3c0.1,1,0.4,1.6,0.9,1.6h7.3c0.4,0,0.6,0.2,0.6,0.7v2
		c0,0.3-0.2,0.5-0.5,0.5h-20.7c-0.4,0-0.5-0.2-0.5-0.5v-2.2c0-0.4,0.1-0.5,0.4-0.5h3.7c0.6,0,1.4-1,2.4-2.9
		c3.8-9,7.7-18.1,11.8-27.6c7.5-17,11.7-26.6,12.7-28.7c0.9-1.8,1.6-3.4,2.1-4.8c0.4-1.1,0.8-1.6,1.1-1.7c1.6-0.3,3.6-0.6,5.8-1.1
		c0.4-0.1,0.6-0.2,0.7-0.2c0.3,0,0.5,0.1,0.7,0.4c0.2,0.3,0.3,0.6,0.3,0.9c-0.2,0.2-0.3,0.4-0.5,0.6c-0.1,0.2-0.5,0.6-1,1.3
		c-0.6,0.8-0.9,1.5-0.9,2.1s0.2,1.8,0.7,3.7c0.5,2.1,2.1,6.7,4.9,13.6c0.5,1.1,2.5,6.8,6.2,17.1c3.4,9.4,6.3,16.7,8.8,21.8
		c1.8,3.6,3.1,5.5,3.8,5.5h3.5c0.3,0,0.4,0.2,0.4,0.7V117.6z M730.2,89.9c-0.4-1.2-1.9-5.4-4.6-12.8c-1.2-3.7-2.4-7.6-3.7-11.7
		c-0.3-1.1-0.7-1.7-1.2-1.7c-0.5,0-0.9,0.6-1.3,1.7c-1.2,3-2.6,6.3-4.1,10c-1.9,4.4-3.9,9.1-6,14.2c-0.1,0.4-0.2,0.7-0.2,0.8
		c0,0.2,0.2,0.2,0.4,0.2H730C730.3,90.6,730.3,90.4,730.2,89.9z"/>
	<linearGradient id="SVGID_14_" gradientUnits="userSpaceOnUse" x1="797.248" y1="51.8892" x2="797.248" y2="120.1016">
		<stop  offset="0" style="stop-color:#02BEE1"/>
		<stop  offset="0.7688" style="stop-color:#00436D"/>
	</linearGradient>
	<path class="st15" d="M833.6,54.5c0,0.4-0.2,0.6-0.6,0.6h-6.9c-0.7,0-1.1,0.4-1.1,1.3c0,0.3,0,4.6-0.1,12.9
		c-0.1,8.3-0.1,12.9-0.1,13.6c0,0.7-0.1,6.5-0.2,17.5c-0.1,10.9-0.2,16.7-0.2,17.3c0,1.3-0.3,2.1-0.8,2.3c-1,0.4-1.8,0.2-2.4-0.6
		c-8.9-10.8-18.1-21.9-27.6-33.4c-4.8-6.3-10.5-13.4-17.2-21.2c-0.5-0.4-0.8-0.3-1,0.4c-0.1,0.4-0.4,5.9-0.7,16.4
		c-0.4,10.6-0.6,17.4-0.6,20.4c0,8.7,0.9,13,2.7,13h6c0.4,0,0.6,0.1,0.6,0.4v2.4c0,0.3-0.2,0.4-0.5,0.4h-20.1
		c-0.4,0-0.6-0.1-0.6-0.3v-2.4c0-0.4,0.2-0.5,0.6-0.5h6c0.6,0,0.8-0.2,0.8-0.7v-7c0-1.9,0.3-9.5,0.9-22.8
		c0.6-13.3,0.9-20.1,0.9-20.3c0-6-2.3-9-6.8-9h-3.3c-0.3,0-0.4-0.2-0.4-0.5v-2.2c0-0.3,0.2-0.5,0.5-0.5h17.3c0.6,0,1,0.3,1.3,0.8
		c0.3,0.5,3.2,4.2,8.6,11c5.4,6.8,8.4,10.6,9.1,11.4c6.9,8.2,14.2,16.8,21.9,25.6c0.1,0.1,0.3,0.1,0.4,0.1c0.3,0,0.5-0.5,0.5-1.4
		c0-0.6,0-5.6,0-15c0-9.4,0-14.5-0.1-15.4c-0.5-9.3-1.7-14-3.7-14h-6c-0.5,0-0.7-0.2-0.7-0.5v-2.2c0-0.3,0.2-0.5,0.6-0.5h22.3
		c0.5,0,0.7,0.1,0.7,0.4V54.5z"/>
	<linearGradient id="SVGID_15_" gradientUnits="userSpaceOnUse" x1="866.3428" y1="51.6938" x2="866.3428" y2="118.0996">
		<stop  offset="0" style="stop-color:#02BEE1"/>
		<stop  offset="0.7688" style="stop-color:#00436D"/>
	</linearGradient>
	<path class="st16" d="M893.7,109.6c-1.4,2.4-2.9,5-4.6,7.9c-0.3,0.4-0.6,0.6-1.1,0.6h-48.5c-0.3,0-0.5-0.2-0.5-0.6v-2.1
		c0-0.4,0.1-0.5,0.4-0.5h7.6c0.4,0,0.7-0.1,0.8-0.2c0.1-0.1,0.2-0.4,0.2-0.8c0-0.3,0-5.2-0.1-14.7c-0.1-9.5-0.1-14.4-0.1-14.7
		c0-0.3,0-3.5,0-9.7c0-6.1,0-9.4,0-9.7c0-6.6-0.7-9.9-2-9.9h-6.2c-0.3,0-0.5-0.2-0.5-0.5v-2.2c0-0.2,0-0.3,0.1-0.4
		c0.1-0.1,0.2-0.1,0.5-0.1h45.9c0.6,0,1.5,0,2.6-0.1c1.1-0.1,1.6-0.1,1.6-0.1c0.4,0,0.6,0.2,0.5,0.5c-0.6,2.1-1.3,4.6-2.2,7.3
		c-0.3,0.7-0.6,1.1-1,1.1c0,0-0.3-0.3-0.9-0.9c-1.4-1.3-3.4-2.2-6-2.7c-6.7-1.2-13.8-1.8-21.2-1.9c-0.5,0-0.8,0.2-0.8,0.6
		c-0.1,11.2-0.2,19.2-0.2,24c0,0.7,0.3,1,0.8,1h21.6c0.4,0,0.7-0.3,0.8-0.8c0.2-1.7,0.5-3.6,0.8-5.7c0-0.6,0.2-0.9,0.6-0.9h2
		c0.5,0,0.7,0.3,0.7,0.8c0,0.1-0.1,1.5-0.2,4.1c-0.1,2.6-0.2,4.1-0.2,4.6s0,2.2,0.1,5.1c0.1,2.9,0.1,4.5,0.1,4.7
		c0,0.7-0.2,1.1-0.6,1.1h-2.1c-0.4,0-0.6-0.2-0.6-0.7c0-1.3-0.2-3.8-0.6-7.4c-0.1-0.7-0.4-1-0.9-1c-0.3,0-3.9-0.1-10.8-0.2
		c-7-0.1-10.5-0.2-10.7-0.2c-0.4,0-0.6,0.3-0.6,0.9v18.7c0,7.5,0.9,11.2,2.6,11.2c13.9,0,24-1.7,30.3-5c1.5-0.8,2.3-1.2,2.3-1.2
		c0.1,0,0.2,0.1,0.4,0.3C893.7,109.3,893.8,109.5,893.7,109.6z"/>
	<linearGradient id="SVGID_16_" gradientUnits="userSpaceOnUse" x1="925.9367" y1="51.2758" x2="925.9367" y2="118.0996">
		<stop  offset="0" style="stop-color:#02BEE1"/>
		<stop  offset="0.7688" style="stop-color:#00436D"/>
	</linearGradient>
	<path class="st17" d="M957.7,52.4c-0.2,1.6-0.8,4.2-1.8,7.9c-0.1,0.5-0.5,0.7-1.2,0.7c-0.7,0-1.3-0.3-1.5-0.8
		c-0.7-1.4-1.7-2.3-3.3-2.7c-1.1-0.3-3.9-0.6-8.5-1c-4.4-0.4-7.3-0.6-8.9-0.6c-0.5,0-0.7,0.2-0.7,0.7c-0.4,8.4-0.6,23.4-0.6,45
		c0,8.9,0.8,13.3,2.3,13.3h7.8c0.2,0,0.3,0.1,0.3,0.4v2.3c0,0.3-0.1,0.5-0.3,0.5H913c-0.3,0-0.5-0.2-0.5-0.5v-2.2
		c0-0.4,0.2-0.5,0.5-0.5h7.1c0.6,0,0.9-0.4,0.9-1.1c0-0.1,0-1.8-0.1-5c-0.1-3.2-0.1-5.2-0.1-5.8c0-0.6,0.1-6.1,0.2-16.7
		c0.2-10.6,0.2-16.1,0.2-16.5c0-9.3-0.5-14-1.6-14c-7.5,0-13.6,0.7-18.2,2c-1.1,0.3-2.1,1-3.2,2.1c-1,1.1-1.8,1.6-2.1,1.7
		c-1,0.1-1.6,0-1.9-0.4c-0.3-0.3-0.2-0.8,0.3-1.6c0.8-2.9,1.7-5.5,2.5-7.8c0.1-0.4,0.5-0.6,1.1-0.5c0.6,0.1,4.6,0.3,12.1,0.6
		c8,0.3,13.4,0.5,16.3,0.5c9.4,0,18.3-0.1,26.6-0.4c1,0,1.9-0.1,2.7-0.2c0.7-0.1,1.1-0.2,1.1-0.2C957.4,51.6,957.7,51.9,957.7,52.4z
		"/>
	<linearGradient id="SVGID_17_" gradientUnits="userSpaceOnUse" x1="1012.046" y1="51.6938" x2="1012.046" y2="118.0996">
		<stop  offset="0" style="stop-color:#02BEE1"/>
		<stop  offset="0.7688" style="stop-color:#00436D"/>
	</linearGradient>
	<path class="st18" d="M1039.4,109.6c-1.4,2.4-2.9,5-4.6,7.9c-0.3,0.4-0.6,0.6-1.1,0.6h-48.5c-0.3,0-0.5-0.2-0.5-0.6v-2.1
		c0-0.4,0.1-0.5,0.4-0.5h7.6c0.4,0,0.7-0.1,0.8-0.2c0.1-0.1,0.2-0.4,0.2-0.8c0-0.3,0-5.2-0.1-14.7c-0.1-9.5-0.1-14.4-0.1-14.7
		c0-0.3,0-3.5,0-9.7c0-6.1,0-9.4,0-9.7c0-6.6-0.7-9.9-2-9.9h-6.2c-0.3,0-0.5-0.2-0.5-0.5v-2.2c0-0.2,0-0.3,0.1-0.4
		c0.1-0.1,0.2-0.1,0.5-0.1h45.9c0.6,0,1.5,0,2.6-0.1c1.1-0.1,1.6-0.1,1.6-0.1c0.4,0,0.6,0.2,0.5,0.5c-0.6,2.1-1.3,4.6-2.2,7.3
		c-0.3,0.7-0.6,1.1-1,1.1c0,0-0.3-0.3-0.9-0.9c-1.4-1.3-3.4-2.2-6-2.7c-6.7-1.2-13.8-1.8-21.2-1.9c-0.5,0-0.8,0.2-0.8,0.6
		c-0.1,11.2-0.2,19.2-0.2,24c0,0.7,0.3,1,0.8,1h21.6c0.4,0,0.7-0.3,0.8-0.8c0.2-1.7,0.5-3.6,0.8-5.7c0-0.6,0.2-0.9,0.6-0.9h2
		c0.5,0,0.7,0.3,0.7,0.8c0,0.1-0.1,1.5-0.2,4.1c-0.1,2.6-0.2,4.1-0.2,4.6s0,2.2,0.1,5.1c0.1,2.9,0.1,4.5,0.1,4.7
		c0,0.7-0.2,1.1-0.6,1.1h-2.1c-0.4,0-0.6-0.2-0.6-0.7c0-1.3-0.2-3.8-0.6-7.4c-0.1-0.7-0.4-1-0.9-1c-0.3,0-3.9-0.1-10.8-0.2
		c-7-0.1-10.5-0.2-10.7-0.2c-0.4,0-0.6,0.3-0.6,0.9v18.7c0,7.5,0.9,11.2,2.6,11.2c13.9,0,24-1.7,30.3-5c1.5-0.8,2.3-1.2,2.3-1.2
		c0.1,0,0.2,0.1,0.4,0.3C1039.4,109.3,1039.5,109.5,1039.4,109.6z"/>
	<linearGradient id="SVGID_18_" gradientUnits="userSpaceOnUse" x1="1074.5186" y1="51.8892" x2="1074.5186" y2="118.9785">
		<stop  offset="0" style="stop-color:#02BEE1"/>
		<stop  offset="0.7688" style="stop-color:#00436D"/>
	</linearGradient>
	<path class="st19" d="M1108.4,54.6c0,0.3-0.1,0.5-0.3,0.5h-3.1c-0.7,0-1.1,0.2-1.5,0.7c-3.5,8.1-7.4,17.1-11.6,27
		c-4.9,10.7-9.8,22-14.5,33.9c-0.6,1.5-1.4,2.3-2.4,2.3c-1,0-1.8-0.6-2.3-1.7c-4.7-10.8-9.5-21.9-14.5-33.5
		c-1.9-4.2-3.7-8.4-5.6-12.5c-3.3-7.1-5.8-11.9-7.6-14.5c-0.8-1.1-1.8-1.7-2.8-1.7h-0.9c-0.3,0-0.5,0-0.5-0.1s-0.1-0.2-0.1-0.3v-2.2
		c0-0.3,0.2-0.5,0.5-0.5h22.4c0.4,0,0.6,0.1,0.6,0.4v2.2c0,0.4-0.1,0.6-0.4,0.6h-4.6c-0.8,0-1.3,0.4-1.3,1.2s0.2,1.5,0.5,2.3
		c3.2,7,6.5,14.4,10,22.3c4.4,11.2,7.4,18.5,9.1,21.8c0.3,0.7,0.6,1,0.9,1c0.2,0,0.5-0.2,0.7-0.6c0.7-1.1,2.4-5.2,5.3-12.5
		c1.5-3.7,3-7.5,4.5-11.3c2.5-5.5,4.6-10.9,6.5-16.1c1-3,1.5-5.1,1.4-6.3c-0.1-1.3-0.7-1.9-1.7-1.9h-5c-0.5,0-0.7-0.2-0.7-0.5v-2.2
		c0-0.3,0.1-0.5,0.4-0.5h18.1c0.3,0,0.5,0.1,0.5,0.4V54.6z"/>
	<linearGradient id="SVGID_19_" gradientUnits="userSpaceOnUse" x1="1140.1221" y1="51.6938" x2="1140.1221" y2="118.0996">
		<stop  offset="0" style="stop-color:#02BEE1"/>
		<stop  offset="0.7688" style="stop-color:#00436D"/>
	</linearGradient>
	<path class="st20" d="M1167.4,109.6c-1.4,2.4-2.9,5-4.6,7.9c-0.3,0.4-0.6,0.6-1.1,0.6h-48.5c-0.3,0-0.5-0.2-0.5-0.6v-2.1
		c0-0.4,0.1-0.5,0.4-0.5h7.6c0.4,0,0.7-0.1,0.8-0.2c0.1-0.1,0.2-0.4,0.2-0.8c0-0.3,0-5.2-0.1-14.7c-0.1-9.5-0.1-14.4-0.1-14.7
		c0-0.3,0-3.5,0-9.7c0-6.1,0-9.4,0-9.7c0-6.6-0.7-9.9-2-9.9h-6.2c-0.3,0-0.5-0.2-0.5-0.5v-2.2c0-0.2,0-0.3,0.1-0.4
		c0.1-0.1,0.2-0.1,0.5-0.1h45.9c0.6,0,1.5,0,2.6-0.1c1.1-0.1,1.6-0.1,1.6-0.1c0.4,0,0.6,0.2,0.5,0.5c-0.6,2.1-1.3,4.6-2.2,7.3
		c-0.3,0.7-0.6,1.1-1,1.1c0,0-0.3-0.3-0.9-0.9c-1.4-1.3-3.4-2.2-6-2.7c-6.7-1.2-13.8-1.8-21.2-1.9c-0.5,0-0.8,0.2-0.8,0.6
		c-0.1,11.2-0.2,19.2-0.2,24c0,0.7,0.3,1,0.8,1h21.6c0.4,0,0.7-0.3,0.8-0.8c0.2-1.7,0.5-3.6,0.8-5.7c0-0.6,0.2-0.9,0.6-0.9h2
		c0.5,0,0.7,0.3,0.7,0.8c0,0.1-0.1,1.5-0.2,4.1c-0.1,2.6-0.2,4.1-0.2,4.6s0,2.2,0.1,5.1c0.1,2.9,0.1,4.5,0.1,4.7
		c0,0.7-0.2,1.1-0.6,1.1h-2.1c-0.4,0-0.6-0.2-0.6-0.7c0-1.3-0.2-3.8-0.6-7.4c-0.1-0.7-0.4-1-0.9-1c-0.3,0-3.9-0.1-10.8-0.2
		c-7-0.1-10.5-0.2-10.7-0.2c-0.4,0-0.6,0.3-0.6,0.9v18.7c0,7.5,0.9,11.2,2.6,11.2c13.9,0,24-1.7,30.3-5c1.5-0.8,2.3-1.2,2.3-1.2
		c0.1,0,0.2,0.1,0.4,0.3C1167.5,109.3,1167.5,109.5,1167.4,109.6z"/>
	<linearGradient id="SVGID_20_" gradientUnits="userSpaceOnUse" x1="1207.502" y1="51.8892" x2="1207.502" y2="120.1016">
		<stop  offset="0" style="stop-color:#02BEE1"/>
		<stop  offset="0.7688" style="stop-color:#00436D"/>
	</linearGradient>
	<path class="st21" d="M1243.9,54.5c0,0.4-0.2,0.6-0.6,0.6h-6.9c-0.7,0-1.1,0.4-1.1,1.3c0,0.3,0,4.6-0.1,12.9
		c-0.1,8.3-0.1,12.9-0.1,13.6c0,0.7-0.1,6.5-0.2,17.5c-0.1,10.9-0.2,16.7-0.2,17.3c0,1.3-0.3,2.1-0.8,2.3c-1,0.4-1.8,0.2-2.4-0.6
		c-8.9-10.8-18.1-21.9-27.6-33.4c-4.8-6.3-10.5-13.4-17.2-21.2c-0.5-0.4-0.8-0.3-1,0.4c-0.1,0.4-0.4,5.9-0.7,16.4
		c-0.4,10.6-0.6,17.4-0.6,20.4c0,8.7,0.9,13,2.7,13h6c0.4,0,0.6,0.1,0.6,0.4v2.4c0,0.3-0.2,0.4-0.5,0.4h-20.1
		c-0.4,0-0.6-0.1-0.6-0.3v-2.4c0-0.4,0.2-0.5,0.6-0.5h6c0.6,0,0.8-0.2,0.8-0.7v-7c0-1.9,0.3-9.5,0.9-22.8
		c0.6-13.3,0.9-20.1,0.9-20.3c0-6-2.3-9-6.8-9h-3.3c-0.3,0-0.4-0.2-0.4-0.5v-2.2c0-0.3,0.2-0.5,0.5-0.5h17.3c0.6,0,1,0.3,1.3,0.8
		c0.3,0.5,3.2,4.2,8.6,11c5.4,6.8,8.4,10.6,9.1,11.4c6.9,8.2,14.2,16.8,21.9,25.6c0.1,0.1,0.3,0.1,0.4,0.1c0.3,0,0.5-0.5,0.5-1.4
		c0-0.6,0-5.6,0-15c0-9.4,0-14.5-0.1-15.4c-0.5-9.3-1.7-14-3.7-14h-6c-0.5,0-0.7-0.2-0.7-0.5v-2.2c0-0.3,0.2-0.5,0.6-0.5h22.3
		c0.5,0,0.7,0.1,0.7,0.4V54.5z"/>
	<linearGradient id="SVGID_21_" gradientUnits="userSpaceOnUse" x1="1277.7921" y1="51.2758" x2="1277.7921" y2="118.0996">
		<stop  offset="0" style="stop-color:#02BEE1"/>
		<stop  offset="0.7688" style="stop-color:#00436D"/>
	</linearGradient>
	<path class="st22" d="M1309.5,52.4c-0.2,1.6-0.8,4.2-1.8,7.9c-0.1,0.5-0.5,0.7-1.2,0.7c-0.7,0-1.3-0.3-1.5-0.8
		c-0.7-1.4-1.7-2.3-3.3-2.7c-1.1-0.3-3.9-0.6-8.5-1c-4.4-0.4-7.3-0.6-8.9-0.6c-0.5,0-0.7,0.2-0.7,0.7c-0.4,8.4-0.6,23.4-0.6,45
		c0,8.9,0.8,13.3,2.3,13.3h7.8c0.2,0,0.3,0.1,0.3,0.4v2.3c0,0.3-0.1,0.5-0.3,0.5h-28.2c-0.3,0-0.5-0.2-0.5-0.5v-2.2
		c0-0.4,0.2-0.5,0.5-0.5h7.1c0.6,0,0.9-0.4,0.9-1.1c0-0.1,0-1.8-0.1-5c-0.1-3.2-0.1-5.2-0.1-5.8c0-0.6,0.1-6.1,0.2-16.7
		c0.2-10.6,0.2-16.1,0.2-16.5c0-9.3-0.5-14-1.6-14c-7.5,0-13.6,0.7-18.2,2c-1.1,0.3-2.1,1-3.2,2.1c-1,1.1-1.8,1.6-2.1,1.7
		c-1,0.1-1.6,0-1.9-0.4c-0.3-0.3-0.2-0.8,0.3-1.6c0.8-2.9,1.7-5.5,2.5-7.8c0.1-0.4,0.5-0.6,1.1-0.5c0.6,0.1,4.6,0.3,12.1,0.6
		c8,0.3,13.4,0.5,16.3,0.5c9.4,0,18.3-0.1,26.6-0.4c1,0,1.9-0.1,2.7-0.2c0.7-0.1,1.1-0.2,1.1-0.2
		C1309.3,51.6,1309.5,51.9,1309.5,52.4z"/>
	<linearGradient id="SVGID_22_" gradientUnits="userSpaceOnUse" x1="1337.043" y1="51.0103" x2="1337.043" y2="118.8809">
		<stop  offset="0" style="stop-color:#02BEE1"/>
		<stop  offset="0.7688" style="stop-color:#00436D"/>
	</linearGradient>
	<path class="st23" d="M1358.6,100.5c0,4.9-2,9.1-5.9,12.8c-2.2,2-4.6,3.5-7.1,4.3c-2.7,0.8-6.3,1.3-10.8,1.3
		c-6.5,0-12.6-1.5-18.4-4.6c-0.5-0.2-0.7-0.9-0.7-2c0-0.2,0-2.2,0-6c0-3.7,0-5.8,0-6.1c0-0.4,0.3-0.6,1-0.6h2c0.6,0,0.9,0.2,1,0.6
		c0,1.2,0.1,2.4,0.3,3.5c0.5,2.9,2,5.5,4.6,7.6c2.5,2.2,6,3.2,10.5,3.2c6.1,0,10.2-2,12.5-5.9c1-1.8,1.5-4.1,1.5-6.9
		c0-2.6-0.9-4.6-2.7-6.2c-1.8-2-5.2-3.8-10.4-5.5c-5.8-1.8-10.4-4.2-13.9-7.2c-3.5-3-5.2-7.4-5.2-13.4c0-5.5,2.4-10.2,7.3-14.1
		c3.8-3,8.7-4.5,14.7-4.5c6.6,0,11.8,1.5,15.6,4.4c0.5,0.4,0.8,0.9,0.9,1.3c0.4,2.1,0.5,5.5,0.5,10.1c0,0.7-0.1,1-0.4,1h-2.4
		c-0.4,0-0.6-0.2-0.7-0.6c-0.3-1.1-0.6-2.4-1-3.7c-0.6-2-1.8-3.6-3.6-4.8c-3-2.1-6.9-3.1-11.6-3.1c-3.6,0-6.4,1-8.4,2.9
		c-2.2,2.2-3.3,5-3.2,8.5c0.1,2.3,1.1,4.6,3.2,6.8c1,1.1,4.8,2.9,11.2,5.5c3.8,1.5,6.6,2.8,8.3,3.7c2.9,1.5,5.3,3.3,7.3,5.3
		C1357.2,91,1358.6,95.1,1358.6,100.5z"/>
</g>
<polygon class="st5" points="733,91 973,91 973,91 733,91 "/>
</svg>
